M48
; DRILL file {KiCad (5.1.9)-1} date 01/04/21 19:24:52
; FORMAT={-:-/ absolute / inch / decimal}
; #@! TF.CreationDate,2021-01-04T19:24:52+01:00
; #@! TF.GenerationSoftware,Kicad,Pcbnew,(5.1.9)-1
; #@! TF.FileFunction,Plated,1,2,PTH
FMAT,2
INCH
T1C0.0157
T2C0.0236
T3C0.0256
T4C0.0579
%
G90
G05
T1
X3.735Y-3.226
X4.152Y-3.326
X4.271Y-3.083
X4.438Y-2.997
X4.599Y-3.911
X4.602Y-3.209
X4.615Y-3.35
X4.709Y-2.276
X4.713Y-2.988
X4.8395Y-1.8875
X4.851Y-2.854
X4.882Y-3.432
X4.893Y-3.116
X4.92Y-2.733
X4.9435Y-3.038
X4.947Y-3.511
X4.964Y-2.688
X5.023Y-3.432
X5.033Y-1.887
X5.067Y-3.431
X5.109Y-2.275
X5.112Y-3.431
X5.113Y-3.389
X5.156Y-3.388
X5.26Y-3.234
X5.432Y-2.993
T3
X4.81Y-3.912
X4.86Y-3.912
X4.91Y-3.912
X4.96Y-3.912
X5.01Y-3.912
X5.06Y-3.912
T4
X3.661Y-2.048
X3.661Y-2.798
X3.661Y-3.548
X3.911Y-1.948
X3.911Y-2.698
X3.911Y-3.448
X4.411Y-2.048
X4.411Y-2.798
X4.411Y-3.548
X4.661Y-1.948
X4.661Y-2.698
X4.661Y-3.448
X5.161Y-2.048
X5.161Y-2.798
X5.161Y-3.548
X5.411Y-1.948
X5.411Y-2.698
X5.411Y-3.448
X5.911Y-2.048
X5.911Y-2.798
X5.911Y-3.548
X6.161Y-1.948
X6.161Y-2.698
X6.161Y-3.448
T2
G00X4.7659Y-1.5659
M15
G01X4.7659Y-1.5895
M16
G05
G00X4.7659Y-1.7206
M15
G01X4.7659Y-1.7639
M16
G05
G00X5.1061Y-1.5659
M15
G01X5.1061Y-1.5895
M16
G05
G00X5.1061Y-1.7206
M15
G01X5.1061Y-1.7639
M16
G05
T0
M30
