%TF.GenerationSoftware,KiCad,Pcbnew,(5.1.9)-1*%
%TF.CreationDate,2021-01-04T19:24:50+01:00*%
%TF.ProjectId,pcb,7063622e-6b69-4636-9164-5f7063625858,rev?*%
%TF.SameCoordinates,Original*%
%TF.FileFunction,Legend,Bot*%
%TF.FilePolarity,Positive*%
%FSLAX46Y46*%
G04 Gerber Fmt 4.6, Leading zero omitted, Abs format (unit mm)*
G04 Created by KiCad (PCBNEW (5.1.9)-1) date 2021-01-04 19:24:50*
%MOMM*%
%LPD*%
G01*
G04 APERTURE LIST*
%ADD10C,0.120000*%
%ADD11C,0.150000*%
G04 APERTURE END LIST*
D10*
%TO.C,D12*%
X146029800Y-95705200D02*
X146029800Y-94245200D01*
X142869800Y-95705200D02*
X142869800Y-93545200D01*
X142869800Y-95705200D02*
X143799800Y-95705200D01*
X146029800Y-95705200D02*
X145099800Y-95705200D01*
%TO.C,D10*%
X107904400Y-95679800D02*
X107904400Y-94219800D01*
X104744400Y-95679800D02*
X104744400Y-93519800D01*
X104744400Y-95679800D02*
X105674400Y-95679800D01*
X107904400Y-95679800D02*
X106974400Y-95679800D01*
%TO.C,D8*%
X146004400Y-76477400D02*
X146004400Y-75017400D01*
X142844400Y-76477400D02*
X142844400Y-74317400D01*
X142844400Y-76477400D02*
X143774400Y-76477400D01*
X146004400Y-76477400D02*
X145074400Y-76477400D01*
%TO.C,D6*%
X107879000Y-76477400D02*
X107879000Y-75017400D01*
X104719000Y-76477400D02*
X104719000Y-74317400D01*
X104719000Y-76477400D02*
X105649000Y-76477400D01*
X107879000Y-76477400D02*
X106949000Y-76477400D01*
%TO.C,D4*%
X146004400Y-57605200D02*
X146004400Y-56145200D01*
X142844400Y-57605200D02*
X142844400Y-55445200D01*
X142844400Y-57605200D02*
X143774400Y-57605200D01*
X146004400Y-57605200D02*
X145074400Y-57605200D01*
%TO.C,D2*%
X107904400Y-57554400D02*
X107904400Y-56094400D01*
X104744400Y-57554400D02*
X104744400Y-55394400D01*
X104744400Y-57554400D02*
X105674400Y-57554400D01*
X107904400Y-57554400D02*
X106974400Y-57554400D01*
%TO.C,XTAL1*%
X135662400Y-83534000D02*
X135662400Y-79534000D01*
X138962400Y-83534000D02*
X135662400Y-83534000D01*
%TO.C,USB1*%
X120674400Y-37222600D02*
X130074400Y-37222600D01*
X130074400Y-43022600D02*
X130074400Y-41022600D01*
X130074400Y-39122600D02*
X130074400Y-37222600D01*
X120674400Y-43022600D02*
X120674400Y-41022600D01*
X120674400Y-39122600D02*
X120674400Y-37222600D01*
%TO.C,U2*%
X124474400Y-55006600D02*
X126924400Y-55006600D01*
X126274400Y-58226600D02*
X124474400Y-58226600D01*
D11*
%TO.C,U1*%
X125736699Y-75118775D02*
X126744326Y-74111148D01*
X120451076Y-80086200D02*
X120680886Y-79856390D01*
X125577600Y-85212724D02*
X125807410Y-84982914D01*
X130704124Y-80086200D02*
X130474314Y-80316010D01*
X125577600Y-74959676D02*
X125347790Y-75189486D01*
X130704124Y-80086200D02*
X130474314Y-79856390D01*
X125577600Y-85212724D02*
X125347790Y-84982914D01*
X120451076Y-80086200D02*
X120680886Y-80316010D01*
X125577600Y-74959676D02*
X125736699Y-75118775D01*
%TO.C,RESET1*%
X108093200Y-84591200D02*
X113293200Y-84591200D01*
X113293200Y-84591200D02*
X113293200Y-79391200D01*
X113293200Y-79391200D02*
X108093200Y-79391200D01*
X108093200Y-79391200D02*
X108093200Y-84591200D01*
X111693200Y-81991200D02*
G75*
G03*
X111693200Y-81991200I-1000000J0D01*
G01*
D10*
%TO.C,R9*%
X118972000Y-62409336D02*
X118972000Y-62863464D01*
X117502000Y-62409336D02*
X117502000Y-62863464D01*
%TO.C,R8*%
X125884000Y-62279264D02*
X125884000Y-61825136D01*
X127354000Y-62279264D02*
X127354000Y-61825136D01*
%TO.C,R7*%
X123293200Y-62279264D02*
X123293200Y-61825136D01*
X124763200Y-62279264D02*
X124763200Y-61825136D01*
%TO.C,R6*%
X144651464Y-48436200D02*
X144197336Y-48436200D01*
X144651464Y-46966200D02*
X144197336Y-46966200D01*
%TO.C,R5*%
X106073836Y-46864600D02*
X106527964Y-46864600D01*
X106073836Y-48334600D02*
X106527964Y-48334600D01*
%TO.C,R2*%
X106627664Y-87425200D02*
X106173536Y-87425200D01*
X106627664Y-85955200D02*
X106173536Y-85955200D01*
%TO.C,F1*%
X122102200Y-51630664D02*
X122102200Y-50426536D01*
X123922200Y-51630664D02*
X123922200Y-50426536D01*
%TO.C,D82*%
X128590800Y-60259400D02*
X128590800Y-64159400D01*
X130590800Y-60259400D02*
X130590800Y-64159400D01*
X128590800Y-60259400D02*
X130590800Y-60259400D01*
%TO.C,D81*%
X120005600Y-60259400D02*
X120005600Y-64159400D01*
X122005600Y-60259400D02*
X122005600Y-64159400D01*
X120005600Y-60259400D02*
X122005600Y-60259400D01*
%TO.C,C8*%
X141115148Y-79681400D02*
X141637652Y-79681400D01*
X141115148Y-81151400D02*
X141637652Y-81151400D01*
%TO.C,C7*%
X141115148Y-81992800D02*
X141637652Y-81992800D01*
X141115148Y-83462800D02*
X141637652Y-83462800D01*
%TO.C,C3*%
X124483800Y-89883348D02*
X124483800Y-90405852D01*
X123013800Y-89883348D02*
X123013800Y-90405852D01*
%TO.C,C2*%
X137051148Y-77522400D02*
X137573652Y-77522400D01*
X137051148Y-78992400D02*
X137573652Y-78992400D01*
%TO.C,C1*%
X122526652Y-71372400D02*
X122004148Y-71372400D01*
X122526652Y-69902400D02*
X122004148Y-69902400D01*
D11*
%TO.C,BOOT1*%
X97780800Y-84540400D02*
X102980800Y-84540400D01*
X102980800Y-84540400D02*
X102980800Y-79340400D01*
X102980800Y-79340400D02*
X97780800Y-79340400D01*
X97780800Y-79340400D02*
X97780800Y-84540400D01*
X101380800Y-81940400D02*
G75*
G03*
X101380800Y-81940400I-1000000J0D01*
G01*
%TO.C,D12*%
X142402180Y-93730914D02*
X141402180Y-93730914D01*
X141402180Y-93969009D01*
X141449800Y-94111866D01*
X141545038Y-94207104D01*
X141640276Y-94254723D01*
X141830752Y-94302342D01*
X141973609Y-94302342D01*
X142164085Y-94254723D01*
X142259323Y-94207104D01*
X142354561Y-94111866D01*
X142402180Y-93969009D01*
X142402180Y-93730914D01*
X142402180Y-95254723D02*
X142402180Y-94683295D01*
X142402180Y-94969009D02*
X141402180Y-94969009D01*
X141545038Y-94873771D01*
X141640276Y-94778533D01*
X141687895Y-94683295D01*
X141497419Y-95635676D02*
X141449800Y-95683295D01*
X141402180Y-95778533D01*
X141402180Y-96016628D01*
X141449800Y-96111866D01*
X141497419Y-96159485D01*
X141592657Y-96207104D01*
X141687895Y-96207104D01*
X141830752Y-96159485D01*
X142402180Y-95588057D01*
X142402180Y-96207104D01*
%TO.C,D10*%
X104276780Y-93705514D02*
X103276780Y-93705514D01*
X103276780Y-93943609D01*
X103324400Y-94086466D01*
X103419638Y-94181704D01*
X103514876Y-94229323D01*
X103705352Y-94276942D01*
X103848209Y-94276942D01*
X104038685Y-94229323D01*
X104133923Y-94181704D01*
X104229161Y-94086466D01*
X104276780Y-93943609D01*
X104276780Y-93705514D01*
X104276780Y-95229323D02*
X104276780Y-94657895D01*
X104276780Y-94943609D02*
X103276780Y-94943609D01*
X103419638Y-94848371D01*
X103514876Y-94753133D01*
X103562495Y-94657895D01*
X103276780Y-95848371D02*
X103276780Y-95943609D01*
X103324400Y-96038847D01*
X103372019Y-96086466D01*
X103467257Y-96134085D01*
X103657733Y-96181704D01*
X103895828Y-96181704D01*
X104086304Y-96134085D01*
X104181542Y-96086466D01*
X104229161Y-96038847D01*
X104276780Y-95943609D01*
X104276780Y-95848371D01*
X104229161Y-95753133D01*
X104181542Y-95705514D01*
X104086304Y-95657895D01*
X103895828Y-95610276D01*
X103657733Y-95610276D01*
X103467257Y-95657895D01*
X103372019Y-95705514D01*
X103324400Y-95753133D01*
X103276780Y-95848371D01*
%TO.C,D8*%
X142376780Y-74979304D02*
X141376780Y-74979304D01*
X141376780Y-75217400D01*
X141424400Y-75360257D01*
X141519638Y-75455495D01*
X141614876Y-75503114D01*
X141805352Y-75550733D01*
X141948209Y-75550733D01*
X142138685Y-75503114D01*
X142233923Y-75455495D01*
X142329161Y-75360257D01*
X142376780Y-75217400D01*
X142376780Y-74979304D01*
X141805352Y-76122161D02*
X141757733Y-76026923D01*
X141710114Y-75979304D01*
X141614876Y-75931685D01*
X141567257Y-75931685D01*
X141472019Y-75979304D01*
X141424400Y-76026923D01*
X141376780Y-76122161D01*
X141376780Y-76312638D01*
X141424400Y-76407876D01*
X141472019Y-76455495D01*
X141567257Y-76503114D01*
X141614876Y-76503114D01*
X141710114Y-76455495D01*
X141757733Y-76407876D01*
X141805352Y-76312638D01*
X141805352Y-76122161D01*
X141852971Y-76026923D01*
X141900590Y-75979304D01*
X141995828Y-75931685D01*
X142186304Y-75931685D01*
X142281542Y-75979304D01*
X142329161Y-76026923D01*
X142376780Y-76122161D01*
X142376780Y-76312638D01*
X142329161Y-76407876D01*
X142281542Y-76455495D01*
X142186304Y-76503114D01*
X141995828Y-76503114D01*
X141900590Y-76455495D01*
X141852971Y-76407876D01*
X141805352Y-76312638D01*
%TO.C,D6*%
X104251380Y-74979304D02*
X103251380Y-74979304D01*
X103251380Y-75217400D01*
X103299000Y-75360257D01*
X103394238Y-75455495D01*
X103489476Y-75503114D01*
X103679952Y-75550733D01*
X103822809Y-75550733D01*
X104013285Y-75503114D01*
X104108523Y-75455495D01*
X104203761Y-75360257D01*
X104251380Y-75217400D01*
X104251380Y-74979304D01*
X103251380Y-76407876D02*
X103251380Y-76217400D01*
X103299000Y-76122161D01*
X103346619Y-76074542D01*
X103489476Y-75979304D01*
X103679952Y-75931685D01*
X104060904Y-75931685D01*
X104156142Y-75979304D01*
X104203761Y-76026923D01*
X104251380Y-76122161D01*
X104251380Y-76312638D01*
X104203761Y-76407876D01*
X104156142Y-76455495D01*
X104060904Y-76503114D01*
X103822809Y-76503114D01*
X103727571Y-76455495D01*
X103679952Y-76407876D01*
X103632333Y-76312638D01*
X103632333Y-76122161D01*
X103679952Y-76026923D01*
X103727571Y-75979304D01*
X103822809Y-75931685D01*
%TO.C,D4*%
X142376780Y-56107104D02*
X141376780Y-56107104D01*
X141376780Y-56345200D01*
X141424400Y-56488057D01*
X141519638Y-56583295D01*
X141614876Y-56630914D01*
X141805352Y-56678533D01*
X141948209Y-56678533D01*
X142138685Y-56630914D01*
X142233923Y-56583295D01*
X142329161Y-56488057D01*
X142376780Y-56345200D01*
X142376780Y-56107104D01*
X141710114Y-57535676D02*
X142376780Y-57535676D01*
X141329161Y-57297580D02*
X142043447Y-57059485D01*
X142043447Y-57678533D01*
%TO.C,D2*%
X104276780Y-56056304D02*
X103276780Y-56056304D01*
X103276780Y-56294400D01*
X103324400Y-56437257D01*
X103419638Y-56532495D01*
X103514876Y-56580114D01*
X103705352Y-56627733D01*
X103848209Y-56627733D01*
X104038685Y-56580114D01*
X104133923Y-56532495D01*
X104229161Y-56437257D01*
X104276780Y-56294400D01*
X104276780Y-56056304D01*
X103372019Y-57008685D02*
X103324400Y-57056304D01*
X103276780Y-57151542D01*
X103276780Y-57389638D01*
X103324400Y-57484876D01*
X103372019Y-57532495D01*
X103467257Y-57580114D01*
X103562495Y-57580114D01*
X103705352Y-57532495D01*
X104276780Y-56961066D01*
X104276780Y-57580114D01*
%TO.C,XTAL1*%
X139214780Y-79510190D02*
X140214780Y-80176857D01*
X139214780Y-80176857D02*
X140214780Y-79510190D01*
X139214780Y-80414952D02*
X139214780Y-80986380D01*
X140214780Y-80700666D02*
X139214780Y-80700666D01*
X139929066Y-81272095D02*
X139929066Y-81748285D01*
X140214780Y-81176857D02*
X139214780Y-81510190D01*
X140214780Y-81843523D01*
X140214780Y-82653047D02*
X140214780Y-82176857D01*
X139214780Y-82176857D01*
X140214780Y-83510190D02*
X140214780Y-82938761D01*
X140214780Y-83224476D02*
X139214780Y-83224476D01*
X139357638Y-83129238D01*
X139452876Y-83034000D01*
X139500495Y-82938761D01*
%TO.C,USB1*%
X127112495Y-46219980D02*
X127112495Y-47029504D01*
X127064876Y-47124742D01*
X127017257Y-47172361D01*
X126922019Y-47219980D01*
X126731542Y-47219980D01*
X126636304Y-47172361D01*
X126588685Y-47124742D01*
X126541066Y-47029504D01*
X126541066Y-46219980D01*
X126112495Y-47172361D02*
X125969638Y-47219980D01*
X125731542Y-47219980D01*
X125636304Y-47172361D01*
X125588685Y-47124742D01*
X125541066Y-47029504D01*
X125541066Y-46934266D01*
X125588685Y-46839028D01*
X125636304Y-46791409D01*
X125731542Y-46743790D01*
X125922019Y-46696171D01*
X126017257Y-46648552D01*
X126064876Y-46600933D01*
X126112495Y-46505695D01*
X126112495Y-46410457D01*
X126064876Y-46315219D01*
X126017257Y-46267600D01*
X125922019Y-46219980D01*
X125683923Y-46219980D01*
X125541066Y-46267600D01*
X124779161Y-46696171D02*
X124636304Y-46743790D01*
X124588685Y-46791409D01*
X124541066Y-46886647D01*
X124541066Y-47029504D01*
X124588685Y-47124742D01*
X124636304Y-47172361D01*
X124731542Y-47219980D01*
X125112495Y-47219980D01*
X125112495Y-46219980D01*
X124779161Y-46219980D01*
X124683923Y-46267600D01*
X124636304Y-46315219D01*
X124588685Y-46410457D01*
X124588685Y-46505695D01*
X124636304Y-46600933D01*
X124683923Y-46648552D01*
X124779161Y-46696171D01*
X125112495Y-46696171D01*
X123588685Y-47219980D02*
X124160114Y-47219980D01*
X123874400Y-47219980D02*
X123874400Y-46219980D01*
X123969638Y-46362838D01*
X124064876Y-46458076D01*
X124160114Y-46505695D01*
%TO.C,U2*%
X126136304Y-53168980D02*
X126136304Y-53978504D01*
X126088685Y-54073742D01*
X126041066Y-54121361D01*
X125945828Y-54168980D01*
X125755352Y-54168980D01*
X125660114Y-54121361D01*
X125612495Y-54073742D01*
X125564876Y-53978504D01*
X125564876Y-53168980D01*
X125136304Y-53264219D02*
X125088685Y-53216600D01*
X124993447Y-53168980D01*
X124755352Y-53168980D01*
X124660114Y-53216600D01*
X124612495Y-53264219D01*
X124564876Y-53359457D01*
X124564876Y-53454695D01*
X124612495Y-53597552D01*
X125183923Y-54168980D01*
X124564876Y-54168980D01*
%TO.C,U1*%
X121451126Y-74882230D02*
X122023546Y-75454650D01*
X122057218Y-75555665D01*
X122057218Y-75623009D01*
X122023546Y-75724024D01*
X121888859Y-75858711D01*
X121787844Y-75892383D01*
X121720500Y-75892383D01*
X121619485Y-75858711D01*
X121047065Y-75286291D01*
X121047065Y-76700505D02*
X121451126Y-76296444D01*
X121249096Y-76498474D02*
X120541989Y-75791368D01*
X120710348Y-75825039D01*
X120845035Y-75825039D01*
X120946050Y-75791368D01*
%TO.C,RESET1*%
X112621771Y-78379580D02*
X112955104Y-77903390D01*
X113193200Y-78379580D02*
X113193200Y-77379580D01*
X112812247Y-77379580D01*
X112717009Y-77427200D01*
X112669390Y-77474819D01*
X112621771Y-77570057D01*
X112621771Y-77712914D01*
X112669390Y-77808152D01*
X112717009Y-77855771D01*
X112812247Y-77903390D01*
X113193200Y-77903390D01*
X112193200Y-77855771D02*
X111859866Y-77855771D01*
X111717009Y-78379580D02*
X112193200Y-78379580D01*
X112193200Y-77379580D01*
X111717009Y-77379580D01*
X111336057Y-78331961D02*
X111193200Y-78379580D01*
X110955104Y-78379580D01*
X110859866Y-78331961D01*
X110812247Y-78284342D01*
X110764628Y-78189104D01*
X110764628Y-78093866D01*
X110812247Y-77998628D01*
X110859866Y-77951009D01*
X110955104Y-77903390D01*
X111145580Y-77855771D01*
X111240819Y-77808152D01*
X111288438Y-77760533D01*
X111336057Y-77665295D01*
X111336057Y-77570057D01*
X111288438Y-77474819D01*
X111240819Y-77427200D01*
X111145580Y-77379580D01*
X110907485Y-77379580D01*
X110764628Y-77427200D01*
X110336057Y-77855771D02*
X110002723Y-77855771D01*
X109859866Y-78379580D02*
X110336057Y-78379580D01*
X110336057Y-77379580D01*
X109859866Y-77379580D01*
X109574152Y-77379580D02*
X109002723Y-77379580D01*
X109288438Y-78379580D02*
X109288438Y-77379580D01*
X108145580Y-78379580D02*
X108717009Y-78379580D01*
X108431295Y-78379580D02*
X108431295Y-77379580D01*
X108526533Y-77522438D01*
X108621771Y-77617676D01*
X108717009Y-77665295D01*
%TO.C,R9*%
X117039380Y-62469733D02*
X116563190Y-62136400D01*
X117039380Y-61898304D02*
X116039380Y-61898304D01*
X116039380Y-62279257D01*
X116087000Y-62374495D01*
X116134619Y-62422114D01*
X116229857Y-62469733D01*
X116372714Y-62469733D01*
X116467952Y-62422114D01*
X116515571Y-62374495D01*
X116563190Y-62279257D01*
X116563190Y-61898304D01*
X117039380Y-62945923D02*
X117039380Y-63136400D01*
X116991761Y-63231638D01*
X116944142Y-63279257D01*
X116801285Y-63374495D01*
X116610809Y-63422114D01*
X116229857Y-63422114D01*
X116134619Y-63374495D01*
X116087000Y-63326876D01*
X116039380Y-63231638D01*
X116039380Y-63041161D01*
X116087000Y-62945923D01*
X116134619Y-62898304D01*
X116229857Y-62850685D01*
X116467952Y-62850685D01*
X116563190Y-62898304D01*
X116610809Y-62945923D01*
X116658428Y-63041161D01*
X116658428Y-63231638D01*
X116610809Y-63326876D01*
X116563190Y-63374495D01*
X116467952Y-63422114D01*
%TO.C,R8*%
X128721380Y-61885533D02*
X128245190Y-61552200D01*
X128721380Y-61314104D02*
X127721380Y-61314104D01*
X127721380Y-61695057D01*
X127769000Y-61790295D01*
X127816619Y-61837914D01*
X127911857Y-61885533D01*
X128054714Y-61885533D01*
X128149952Y-61837914D01*
X128197571Y-61790295D01*
X128245190Y-61695057D01*
X128245190Y-61314104D01*
X128149952Y-62456961D02*
X128102333Y-62361723D01*
X128054714Y-62314104D01*
X127959476Y-62266485D01*
X127911857Y-62266485D01*
X127816619Y-62314104D01*
X127769000Y-62361723D01*
X127721380Y-62456961D01*
X127721380Y-62647438D01*
X127769000Y-62742676D01*
X127816619Y-62790295D01*
X127911857Y-62837914D01*
X127959476Y-62837914D01*
X128054714Y-62790295D01*
X128102333Y-62742676D01*
X128149952Y-62647438D01*
X128149952Y-62456961D01*
X128197571Y-62361723D01*
X128245190Y-62314104D01*
X128340428Y-62266485D01*
X128530904Y-62266485D01*
X128626142Y-62314104D01*
X128673761Y-62361723D01*
X128721380Y-62456961D01*
X128721380Y-62647438D01*
X128673761Y-62742676D01*
X128626142Y-62790295D01*
X128530904Y-62837914D01*
X128340428Y-62837914D01*
X128245190Y-62790295D01*
X128197571Y-62742676D01*
X128149952Y-62647438D01*
%TO.C,R7*%
X126130580Y-61885533D02*
X125654390Y-61552200D01*
X126130580Y-61314104D02*
X125130580Y-61314104D01*
X125130580Y-61695057D01*
X125178200Y-61790295D01*
X125225819Y-61837914D01*
X125321057Y-61885533D01*
X125463914Y-61885533D01*
X125559152Y-61837914D01*
X125606771Y-61790295D01*
X125654390Y-61695057D01*
X125654390Y-61314104D01*
X125130580Y-62218866D02*
X125130580Y-62885533D01*
X126130580Y-62456961D01*
%TO.C,R6*%
X144591066Y-46503580D02*
X144924400Y-46027390D01*
X145162495Y-46503580D02*
X145162495Y-45503580D01*
X144781542Y-45503580D01*
X144686304Y-45551200D01*
X144638685Y-45598819D01*
X144591066Y-45694057D01*
X144591066Y-45836914D01*
X144638685Y-45932152D01*
X144686304Y-45979771D01*
X144781542Y-46027390D01*
X145162495Y-46027390D01*
X143733923Y-45503580D02*
X143924400Y-45503580D01*
X144019638Y-45551200D01*
X144067257Y-45598819D01*
X144162495Y-45741676D01*
X144210114Y-45932152D01*
X144210114Y-46313104D01*
X144162495Y-46408342D01*
X144114876Y-46455961D01*
X144019638Y-46503580D01*
X143829161Y-46503580D01*
X143733923Y-46455961D01*
X143686304Y-46408342D01*
X143638685Y-46313104D01*
X143638685Y-46075009D01*
X143686304Y-45979771D01*
X143733923Y-45932152D01*
X143829161Y-45884533D01*
X144019638Y-45884533D01*
X144114876Y-45932152D01*
X144162495Y-45979771D01*
X144210114Y-46075009D01*
%TO.C,R5*%
X106467566Y-49701980D02*
X106800900Y-49225790D01*
X107038995Y-49701980D02*
X107038995Y-48701980D01*
X106658042Y-48701980D01*
X106562804Y-48749600D01*
X106515185Y-48797219D01*
X106467566Y-48892457D01*
X106467566Y-49035314D01*
X106515185Y-49130552D01*
X106562804Y-49178171D01*
X106658042Y-49225790D01*
X107038995Y-49225790D01*
X105562804Y-48701980D02*
X106038995Y-48701980D01*
X106086614Y-49178171D01*
X106038995Y-49130552D01*
X105943757Y-49082933D01*
X105705661Y-49082933D01*
X105610423Y-49130552D01*
X105562804Y-49178171D01*
X105515185Y-49273409D01*
X105515185Y-49511504D01*
X105562804Y-49606742D01*
X105610423Y-49654361D01*
X105705661Y-49701980D01*
X105943757Y-49701980D01*
X106038995Y-49654361D01*
X106086614Y-49606742D01*
%TO.C,R2*%
X106567266Y-85492580D02*
X106900600Y-85016390D01*
X107138695Y-85492580D02*
X107138695Y-84492580D01*
X106757742Y-84492580D01*
X106662504Y-84540200D01*
X106614885Y-84587819D01*
X106567266Y-84683057D01*
X106567266Y-84825914D01*
X106614885Y-84921152D01*
X106662504Y-84968771D01*
X106757742Y-85016390D01*
X107138695Y-85016390D01*
X106186314Y-84587819D02*
X106138695Y-84540200D01*
X106043457Y-84492580D01*
X105805361Y-84492580D01*
X105710123Y-84540200D01*
X105662504Y-84587819D01*
X105614885Y-84683057D01*
X105614885Y-84778295D01*
X105662504Y-84921152D01*
X106233933Y-85492580D01*
X105614885Y-85492580D01*
%TO.C,F1*%
X124760771Y-50695266D02*
X124760771Y-50361933D01*
X125284580Y-50361933D02*
X124284580Y-50361933D01*
X124284580Y-50838123D01*
X125284580Y-51742885D02*
X125284580Y-51171457D01*
X125284580Y-51457171D02*
X124284580Y-51457171D01*
X124427438Y-51361933D01*
X124522676Y-51266695D01*
X124570295Y-51171457D01*
%TO.C,D82*%
X128043180Y-61295114D02*
X127043180Y-61295114D01*
X127043180Y-61533209D01*
X127090800Y-61676066D01*
X127186038Y-61771304D01*
X127281276Y-61818923D01*
X127471752Y-61866542D01*
X127614609Y-61866542D01*
X127805085Y-61818923D01*
X127900323Y-61771304D01*
X127995561Y-61676066D01*
X128043180Y-61533209D01*
X128043180Y-61295114D01*
X127471752Y-62437971D02*
X127424133Y-62342733D01*
X127376514Y-62295114D01*
X127281276Y-62247495D01*
X127233657Y-62247495D01*
X127138419Y-62295114D01*
X127090800Y-62342733D01*
X127043180Y-62437971D01*
X127043180Y-62628447D01*
X127090800Y-62723685D01*
X127138419Y-62771304D01*
X127233657Y-62818923D01*
X127281276Y-62818923D01*
X127376514Y-62771304D01*
X127424133Y-62723685D01*
X127471752Y-62628447D01*
X127471752Y-62437971D01*
X127519371Y-62342733D01*
X127566990Y-62295114D01*
X127662228Y-62247495D01*
X127852704Y-62247495D01*
X127947942Y-62295114D01*
X127995561Y-62342733D01*
X128043180Y-62437971D01*
X128043180Y-62628447D01*
X127995561Y-62723685D01*
X127947942Y-62771304D01*
X127852704Y-62818923D01*
X127662228Y-62818923D01*
X127566990Y-62771304D01*
X127519371Y-62723685D01*
X127471752Y-62628447D01*
X127138419Y-63199876D02*
X127090800Y-63247495D01*
X127043180Y-63342733D01*
X127043180Y-63580828D01*
X127090800Y-63676066D01*
X127138419Y-63723685D01*
X127233657Y-63771304D01*
X127328895Y-63771304D01*
X127471752Y-63723685D01*
X128043180Y-63152257D01*
X128043180Y-63771304D01*
%TO.C,D81*%
X119457980Y-61295114D02*
X118457980Y-61295114D01*
X118457980Y-61533209D01*
X118505600Y-61676066D01*
X118600838Y-61771304D01*
X118696076Y-61818923D01*
X118886552Y-61866542D01*
X119029409Y-61866542D01*
X119219885Y-61818923D01*
X119315123Y-61771304D01*
X119410361Y-61676066D01*
X119457980Y-61533209D01*
X119457980Y-61295114D01*
X118886552Y-62437971D02*
X118838933Y-62342733D01*
X118791314Y-62295114D01*
X118696076Y-62247495D01*
X118648457Y-62247495D01*
X118553219Y-62295114D01*
X118505600Y-62342733D01*
X118457980Y-62437971D01*
X118457980Y-62628447D01*
X118505600Y-62723685D01*
X118553219Y-62771304D01*
X118648457Y-62818923D01*
X118696076Y-62818923D01*
X118791314Y-62771304D01*
X118838933Y-62723685D01*
X118886552Y-62628447D01*
X118886552Y-62437971D01*
X118934171Y-62342733D01*
X118981790Y-62295114D01*
X119077028Y-62247495D01*
X119267504Y-62247495D01*
X119362742Y-62295114D01*
X119410361Y-62342733D01*
X119457980Y-62437971D01*
X119457980Y-62628447D01*
X119410361Y-62723685D01*
X119362742Y-62771304D01*
X119267504Y-62818923D01*
X119077028Y-62818923D01*
X118981790Y-62771304D01*
X118934171Y-62723685D01*
X118886552Y-62628447D01*
X119457980Y-63771304D02*
X119457980Y-63199876D01*
X119457980Y-63485590D02*
X118457980Y-63485590D01*
X118600838Y-63390352D01*
X118696076Y-63295114D01*
X118743695Y-63199876D01*
%TO.C,C8*%
X141543066Y-82453542D02*
X141590685Y-82501161D01*
X141733542Y-82548780D01*
X141828780Y-82548780D01*
X141971638Y-82501161D01*
X142066876Y-82405923D01*
X142114495Y-82310685D01*
X142162114Y-82120209D01*
X142162114Y-81977352D01*
X142114495Y-81786876D01*
X142066876Y-81691638D01*
X141971638Y-81596400D01*
X141828780Y-81548780D01*
X141733542Y-81548780D01*
X141590685Y-81596400D01*
X141543066Y-81644019D01*
X140971638Y-81977352D02*
X141066876Y-81929733D01*
X141114495Y-81882114D01*
X141162114Y-81786876D01*
X141162114Y-81739257D01*
X141114495Y-81644019D01*
X141066876Y-81596400D01*
X140971638Y-81548780D01*
X140781161Y-81548780D01*
X140685923Y-81596400D01*
X140638304Y-81644019D01*
X140590685Y-81739257D01*
X140590685Y-81786876D01*
X140638304Y-81882114D01*
X140685923Y-81929733D01*
X140781161Y-81977352D01*
X140971638Y-81977352D01*
X141066876Y-82024971D01*
X141114495Y-82072590D01*
X141162114Y-82167828D01*
X141162114Y-82358304D01*
X141114495Y-82453542D01*
X141066876Y-82501161D01*
X140971638Y-82548780D01*
X140781161Y-82548780D01*
X140685923Y-82501161D01*
X140638304Y-82453542D01*
X140590685Y-82358304D01*
X140590685Y-82167828D01*
X140638304Y-82072590D01*
X140685923Y-82024971D01*
X140781161Y-81977352D01*
%TO.C,C7*%
X141543066Y-84764942D02*
X141590685Y-84812561D01*
X141733542Y-84860180D01*
X141828780Y-84860180D01*
X141971638Y-84812561D01*
X142066876Y-84717323D01*
X142114495Y-84622085D01*
X142162114Y-84431609D01*
X142162114Y-84288752D01*
X142114495Y-84098276D01*
X142066876Y-84003038D01*
X141971638Y-83907800D01*
X141828780Y-83860180D01*
X141733542Y-83860180D01*
X141590685Y-83907800D01*
X141543066Y-83955419D01*
X141209733Y-83860180D02*
X140543066Y-83860180D01*
X140971638Y-84860180D01*
%TO.C,C3*%
X122425942Y-89977933D02*
X122473561Y-89930314D01*
X122521180Y-89787457D01*
X122521180Y-89692219D01*
X122473561Y-89549361D01*
X122378323Y-89454123D01*
X122283085Y-89406504D01*
X122092609Y-89358885D01*
X121949752Y-89358885D01*
X121759276Y-89406504D01*
X121664038Y-89454123D01*
X121568800Y-89549361D01*
X121521180Y-89692219D01*
X121521180Y-89787457D01*
X121568800Y-89930314D01*
X121616419Y-89977933D01*
X121521180Y-90311266D02*
X121521180Y-90930314D01*
X121902133Y-90596980D01*
X121902133Y-90739838D01*
X121949752Y-90835076D01*
X121997371Y-90882695D01*
X122092609Y-90930314D01*
X122330704Y-90930314D01*
X122425942Y-90882695D01*
X122473561Y-90835076D01*
X122521180Y-90739838D01*
X122521180Y-90454123D01*
X122473561Y-90358885D01*
X122425942Y-90311266D01*
%TO.C,C2*%
X137479066Y-80294542D02*
X137526685Y-80342161D01*
X137669542Y-80389780D01*
X137764780Y-80389780D01*
X137907638Y-80342161D01*
X138002876Y-80246923D01*
X138050495Y-80151685D01*
X138098114Y-79961209D01*
X138098114Y-79818352D01*
X138050495Y-79627876D01*
X138002876Y-79532638D01*
X137907638Y-79437400D01*
X137764780Y-79389780D01*
X137669542Y-79389780D01*
X137526685Y-79437400D01*
X137479066Y-79485019D01*
X137098114Y-79485019D02*
X137050495Y-79437400D01*
X136955257Y-79389780D01*
X136717161Y-79389780D01*
X136621923Y-79437400D01*
X136574304Y-79485019D01*
X136526685Y-79580257D01*
X136526685Y-79675495D01*
X136574304Y-79818352D01*
X137145733Y-80389780D01*
X136526685Y-80389780D01*
%TO.C,C1*%
X122432066Y-69314542D02*
X122479685Y-69362161D01*
X122622542Y-69409780D01*
X122717780Y-69409780D01*
X122860638Y-69362161D01*
X122955876Y-69266923D01*
X123003495Y-69171685D01*
X123051114Y-68981209D01*
X123051114Y-68838352D01*
X123003495Y-68647876D01*
X122955876Y-68552638D01*
X122860638Y-68457400D01*
X122717780Y-68409780D01*
X122622542Y-68409780D01*
X122479685Y-68457400D01*
X122432066Y-68505019D01*
X121479685Y-69409780D02*
X122051114Y-69409780D01*
X121765400Y-69409780D02*
X121765400Y-68409780D01*
X121860638Y-68552638D01*
X121955876Y-68647876D01*
X122051114Y-68695495D01*
%TO.C,BOOT1*%
X102214133Y-77804971D02*
X102071276Y-77852590D01*
X102023657Y-77900209D01*
X101976038Y-77995447D01*
X101976038Y-78138304D01*
X102023657Y-78233542D01*
X102071276Y-78281161D01*
X102166514Y-78328780D01*
X102547466Y-78328780D01*
X102547466Y-77328780D01*
X102214133Y-77328780D01*
X102118895Y-77376400D01*
X102071276Y-77424019D01*
X102023657Y-77519257D01*
X102023657Y-77614495D01*
X102071276Y-77709733D01*
X102118895Y-77757352D01*
X102214133Y-77804971D01*
X102547466Y-77804971D01*
X101356990Y-77328780D02*
X101166514Y-77328780D01*
X101071276Y-77376400D01*
X100976038Y-77471638D01*
X100928419Y-77662114D01*
X100928419Y-77995447D01*
X100976038Y-78185923D01*
X101071276Y-78281161D01*
X101166514Y-78328780D01*
X101356990Y-78328780D01*
X101452228Y-78281161D01*
X101547466Y-78185923D01*
X101595085Y-77995447D01*
X101595085Y-77662114D01*
X101547466Y-77471638D01*
X101452228Y-77376400D01*
X101356990Y-77328780D01*
X100309371Y-77328780D02*
X100118895Y-77328780D01*
X100023657Y-77376400D01*
X99928419Y-77471638D01*
X99880800Y-77662114D01*
X99880800Y-77995447D01*
X99928419Y-78185923D01*
X100023657Y-78281161D01*
X100118895Y-78328780D01*
X100309371Y-78328780D01*
X100404609Y-78281161D01*
X100499847Y-78185923D01*
X100547466Y-77995447D01*
X100547466Y-77662114D01*
X100499847Y-77471638D01*
X100404609Y-77376400D01*
X100309371Y-77328780D01*
X99595085Y-77328780D02*
X99023657Y-77328780D01*
X99309371Y-78328780D02*
X99309371Y-77328780D01*
X98166514Y-78328780D02*
X98737942Y-78328780D01*
X98452228Y-78328780D02*
X98452228Y-77328780D01*
X98547466Y-77471638D01*
X98642704Y-77566876D01*
X98737942Y-77614495D01*
%TD*%
M02*
