%TF.GenerationSoftware,KiCad,Pcbnew,(5.1.9)-1*%
%TF.CreationDate,2021-01-04T19:24:50+01:00*%
%TF.ProjectId,pcb,7063622e-6b69-4636-9164-5f7063625858,rev?*%
%TF.SameCoordinates,Original*%
%TF.FileFunction,Paste,Bot*%
%TF.FilePolarity,Positive*%
%FSLAX46Y46*%
G04 Gerber Fmt 4.6, Leading zero omitted, Abs format (unit mm)*
G04 Created by KiCad (PCBNEW (5.1.9)-1) date 2021-01-04 19:24:50*
%MOMM*%
%LPD*%
G01*
G04 APERTURE LIST*
%ADD10R,0.800000X0.900000*%
%ADD11R,1.200000X1.400000*%
%ADD12R,0.600000X1.450000*%
%ADD13R,0.300000X1.450000*%
%ADD14R,1.060000X0.650000*%
%ADD15C,0.100000*%
%ADD16R,1.800000X1.100000*%
%ADD17R,1.200000X0.900000*%
G04 APERTURE END LIST*
D10*
%TO.C,D12*%
X144449800Y-95945200D03*
X145399800Y-93945200D03*
X143499800Y-93945200D03*
%TD*%
%TO.C,D10*%
X106324400Y-95919800D03*
X107274400Y-93919800D03*
X105374400Y-93919800D03*
%TD*%
%TO.C,D8*%
X144424400Y-76717400D03*
X145374400Y-74717400D03*
X143474400Y-74717400D03*
%TD*%
%TO.C,D6*%
X106299000Y-76717400D03*
X107249000Y-74717400D03*
X105349000Y-74717400D03*
%TD*%
%TO.C,D4*%
X144424400Y-57845200D03*
X145374400Y-55845200D03*
X143474400Y-55845200D03*
%TD*%
%TO.C,D2*%
X106324400Y-57794400D03*
X107274400Y-55794400D03*
X105374400Y-55794400D03*
%TD*%
D11*
%TO.C,XTAL1*%
X138162400Y-82634000D03*
X138162400Y-80434000D03*
X136462400Y-80434000D03*
X136462400Y-82634000D03*
%TD*%
D12*
%TO.C,USB1*%
X128624400Y-45167600D03*
X127824400Y-45167600D03*
X122924400Y-45167600D03*
X122124400Y-45167600D03*
X122124400Y-45167600D03*
X122924400Y-45167600D03*
X127824400Y-45167600D03*
X128624400Y-45167600D03*
D13*
X123624400Y-45167600D03*
X124124400Y-45167600D03*
X124624400Y-45167600D03*
X125624400Y-45167600D03*
X126124400Y-45167600D03*
X126624400Y-45167600D03*
X127124400Y-45167600D03*
X125124400Y-45167600D03*
%TD*%
D14*
%TO.C,U2*%
X124274400Y-56616600D03*
X124274400Y-55666600D03*
X124274400Y-57566600D03*
X126474400Y-57566600D03*
X126474400Y-56616600D03*
X126474400Y-55666600D03*
%TD*%
D15*
%TO.C,U1*%
G36*
X125312435Y-75472328D02*
G01*
X124923526Y-75861237D01*
X123792155Y-74729866D01*
X124181064Y-74340957D01*
X125312435Y-75472328D01*
G37*
G36*
X124746750Y-76038014D02*
G01*
X124357841Y-76426923D01*
X123226470Y-75295552D01*
X123615379Y-74906643D01*
X124746750Y-76038014D01*
G37*
G36*
X124181064Y-76603699D02*
G01*
X123792155Y-76992608D01*
X122660784Y-75861237D01*
X123049693Y-75472328D01*
X124181064Y-76603699D01*
G37*
G36*
X123615379Y-77169384D02*
G01*
X123226470Y-77558293D01*
X122095099Y-76426922D01*
X122484008Y-76038013D01*
X123615379Y-77169384D01*
G37*
G36*
X123049693Y-77735070D02*
G01*
X122660784Y-78123979D01*
X121529413Y-76992608D01*
X121918322Y-76603699D01*
X123049693Y-77735070D01*
G37*
G36*
X122484008Y-78300755D02*
G01*
X122095099Y-78689664D01*
X120963728Y-77558293D01*
X121352637Y-77169384D01*
X122484008Y-78300755D01*
G37*
G36*
X121918323Y-78866441D02*
G01*
X121529414Y-79255350D01*
X120398043Y-78123979D01*
X120786952Y-77735070D01*
X121918323Y-78866441D01*
G37*
G36*
X121352637Y-79432126D02*
G01*
X120963728Y-79821035D01*
X119832357Y-78689664D01*
X120221266Y-78300755D01*
X121352637Y-79432126D01*
G37*
G36*
X120963728Y-80351365D02*
G01*
X121352637Y-80740274D01*
X120221266Y-81871645D01*
X119832357Y-81482736D01*
X120963728Y-80351365D01*
G37*
G36*
X121529414Y-80917050D02*
G01*
X121918323Y-81305959D01*
X120786952Y-82437330D01*
X120398043Y-82048421D01*
X121529414Y-80917050D01*
G37*
G36*
X122095099Y-81482736D02*
G01*
X122484008Y-81871645D01*
X121352637Y-83003016D01*
X120963728Y-82614107D01*
X122095099Y-81482736D01*
G37*
G36*
X122660784Y-82048421D02*
G01*
X123049693Y-82437330D01*
X121918322Y-83568701D01*
X121529413Y-83179792D01*
X122660784Y-82048421D01*
G37*
G36*
X123226470Y-82614107D02*
G01*
X123615379Y-83003016D01*
X122484008Y-84134387D01*
X122095099Y-83745478D01*
X123226470Y-82614107D01*
G37*
G36*
X123792155Y-83179792D02*
G01*
X124181064Y-83568701D01*
X123049693Y-84700072D01*
X122660784Y-84311163D01*
X123792155Y-83179792D01*
G37*
G36*
X124357841Y-83745477D02*
G01*
X124746750Y-84134386D01*
X123615379Y-85265757D01*
X123226470Y-84876848D01*
X124357841Y-83745477D01*
G37*
G36*
X124923526Y-84311163D02*
G01*
X125312435Y-84700072D01*
X124181064Y-85831443D01*
X123792155Y-85442534D01*
X124923526Y-84311163D01*
G37*
G36*
X127363045Y-85442534D02*
G01*
X126974136Y-85831443D01*
X125842765Y-84700072D01*
X126231674Y-84311163D01*
X127363045Y-85442534D01*
G37*
G36*
X127928730Y-84876848D02*
G01*
X127539821Y-85265757D01*
X126408450Y-84134386D01*
X126797359Y-83745477D01*
X127928730Y-84876848D01*
G37*
G36*
X128494416Y-84311163D02*
G01*
X128105507Y-84700072D01*
X126974136Y-83568701D01*
X127363045Y-83179792D01*
X128494416Y-84311163D01*
G37*
G36*
X129060101Y-83745478D02*
G01*
X128671192Y-84134387D01*
X127539821Y-83003016D01*
X127928730Y-82614107D01*
X129060101Y-83745478D01*
G37*
G36*
X129625787Y-83179792D02*
G01*
X129236878Y-83568701D01*
X128105507Y-82437330D01*
X128494416Y-82048421D01*
X129625787Y-83179792D01*
G37*
G36*
X130191472Y-82614107D02*
G01*
X129802563Y-83003016D01*
X128671192Y-81871645D01*
X129060101Y-81482736D01*
X130191472Y-82614107D01*
G37*
G36*
X130757157Y-82048421D02*
G01*
X130368248Y-82437330D01*
X129236877Y-81305959D01*
X129625786Y-80917050D01*
X130757157Y-82048421D01*
G37*
G36*
X131322843Y-81482736D02*
G01*
X130933934Y-81871645D01*
X129802563Y-80740274D01*
X130191472Y-80351365D01*
X131322843Y-81482736D01*
G37*
G36*
X130933934Y-78300755D02*
G01*
X131322843Y-78689664D01*
X130191472Y-79821035D01*
X129802563Y-79432126D01*
X130933934Y-78300755D01*
G37*
G36*
X130368248Y-77735070D02*
G01*
X130757157Y-78123979D01*
X129625786Y-79255350D01*
X129236877Y-78866441D01*
X130368248Y-77735070D01*
G37*
G36*
X129802563Y-77169384D02*
G01*
X130191472Y-77558293D01*
X129060101Y-78689664D01*
X128671192Y-78300755D01*
X129802563Y-77169384D01*
G37*
G36*
X129236878Y-76603699D02*
G01*
X129625787Y-76992608D01*
X128494416Y-78123979D01*
X128105507Y-77735070D01*
X129236878Y-76603699D01*
G37*
G36*
X128671192Y-76038013D02*
G01*
X129060101Y-76426922D01*
X127928730Y-77558293D01*
X127539821Y-77169384D01*
X128671192Y-76038013D01*
G37*
G36*
X128105507Y-75472328D02*
G01*
X128494416Y-75861237D01*
X127363045Y-76992608D01*
X126974136Y-76603699D01*
X128105507Y-75472328D01*
G37*
G36*
X127539821Y-74906643D02*
G01*
X127928730Y-75295552D01*
X126797359Y-76426923D01*
X126408450Y-76038014D01*
X127539821Y-74906643D01*
G37*
G36*
X126974136Y-74340957D02*
G01*
X127363045Y-74729866D01*
X126231674Y-75861237D01*
X125842765Y-75472328D01*
X126974136Y-74340957D01*
G37*
%TD*%
D16*
%TO.C,RESET1*%
X107593200Y-80141200D03*
X113793200Y-83841200D03*
X107593200Y-83841200D03*
X113793200Y-80141200D03*
%TD*%
%TO.C,R9*%
G36*
G01*
X117786999Y-63036400D02*
X118687001Y-63036400D01*
G75*
G02*
X118937000Y-63286399I0J-249999D01*
G01*
X118937000Y-63811401D01*
G75*
G02*
X118687001Y-64061400I-249999J0D01*
G01*
X117786999Y-64061400D01*
G75*
G02*
X117537000Y-63811401I0J249999D01*
G01*
X117537000Y-63286399D01*
G75*
G02*
X117786999Y-63036400I249999J0D01*
G01*
G37*
G36*
G01*
X117786999Y-61211400D02*
X118687001Y-61211400D01*
G75*
G02*
X118937000Y-61461399I0J-249999D01*
G01*
X118937000Y-61986401D01*
G75*
G02*
X118687001Y-62236400I-249999J0D01*
G01*
X117786999Y-62236400D01*
G75*
G02*
X117537000Y-61986401I0J249999D01*
G01*
X117537000Y-61461399D01*
G75*
G02*
X117786999Y-61211400I249999J0D01*
G01*
G37*
%TD*%
%TO.C,R8*%
G36*
G01*
X127069001Y-61652200D02*
X126168999Y-61652200D01*
G75*
G02*
X125919000Y-61402201I0J249999D01*
G01*
X125919000Y-60877199D01*
G75*
G02*
X126168999Y-60627200I249999J0D01*
G01*
X127069001Y-60627200D01*
G75*
G02*
X127319000Y-60877199I0J-249999D01*
G01*
X127319000Y-61402201D01*
G75*
G02*
X127069001Y-61652200I-249999J0D01*
G01*
G37*
G36*
G01*
X127069001Y-63477200D02*
X126168999Y-63477200D01*
G75*
G02*
X125919000Y-63227201I0J249999D01*
G01*
X125919000Y-62702199D01*
G75*
G02*
X126168999Y-62452200I249999J0D01*
G01*
X127069001Y-62452200D01*
G75*
G02*
X127319000Y-62702199I0J-249999D01*
G01*
X127319000Y-63227201D01*
G75*
G02*
X127069001Y-63477200I-249999J0D01*
G01*
G37*
%TD*%
%TO.C,R7*%
G36*
G01*
X124478201Y-61652200D02*
X123578199Y-61652200D01*
G75*
G02*
X123328200Y-61402201I0J249999D01*
G01*
X123328200Y-60877199D01*
G75*
G02*
X123578199Y-60627200I249999J0D01*
G01*
X124478201Y-60627200D01*
G75*
G02*
X124728200Y-60877199I0J-249999D01*
G01*
X124728200Y-61402201D01*
G75*
G02*
X124478201Y-61652200I-249999J0D01*
G01*
G37*
G36*
G01*
X124478201Y-63477200D02*
X123578199Y-63477200D01*
G75*
G02*
X123328200Y-63227201I0J249999D01*
G01*
X123328200Y-62702199D01*
G75*
G02*
X123578199Y-62452200I249999J0D01*
G01*
X124478201Y-62452200D01*
G75*
G02*
X124728200Y-62702199I0J-249999D01*
G01*
X124728200Y-63227201D01*
G75*
G02*
X124478201Y-63477200I-249999J0D01*
G01*
G37*
%TD*%
%TO.C,R6*%
G36*
G01*
X144024400Y-47251199D02*
X144024400Y-48151201D01*
G75*
G02*
X143774401Y-48401200I-249999J0D01*
G01*
X143249399Y-48401200D01*
G75*
G02*
X142999400Y-48151201I0J249999D01*
G01*
X142999400Y-47251199D01*
G75*
G02*
X143249399Y-47001200I249999J0D01*
G01*
X143774401Y-47001200D01*
G75*
G02*
X144024400Y-47251199I0J-249999D01*
G01*
G37*
G36*
G01*
X145849400Y-47251199D02*
X145849400Y-48151201D01*
G75*
G02*
X145599401Y-48401200I-249999J0D01*
G01*
X145074399Y-48401200D01*
G75*
G02*
X144824400Y-48151201I0J249999D01*
G01*
X144824400Y-47251199D01*
G75*
G02*
X145074399Y-47001200I249999J0D01*
G01*
X145599401Y-47001200D01*
G75*
G02*
X145849400Y-47251199I0J-249999D01*
G01*
G37*
%TD*%
%TO.C,R5*%
G36*
G01*
X106700900Y-48049601D02*
X106700900Y-47149599D01*
G75*
G02*
X106950899Y-46899600I249999J0D01*
G01*
X107475901Y-46899600D01*
G75*
G02*
X107725900Y-47149599I0J-249999D01*
G01*
X107725900Y-48049601D01*
G75*
G02*
X107475901Y-48299600I-249999J0D01*
G01*
X106950899Y-48299600D01*
G75*
G02*
X106700900Y-48049601I0J249999D01*
G01*
G37*
G36*
G01*
X104875900Y-48049601D02*
X104875900Y-47149599D01*
G75*
G02*
X105125899Y-46899600I249999J0D01*
G01*
X105650901Y-46899600D01*
G75*
G02*
X105900900Y-47149599I0J-249999D01*
G01*
X105900900Y-48049601D01*
G75*
G02*
X105650901Y-48299600I-249999J0D01*
G01*
X105125899Y-48299600D01*
G75*
G02*
X104875900Y-48049601I0J249999D01*
G01*
G37*
%TD*%
%TO.C,R2*%
G36*
G01*
X106000600Y-86240199D02*
X106000600Y-87140201D01*
G75*
G02*
X105750601Y-87390200I-249999J0D01*
G01*
X105225599Y-87390200D01*
G75*
G02*
X104975600Y-87140201I0J249999D01*
G01*
X104975600Y-86240199D01*
G75*
G02*
X105225599Y-85990200I249999J0D01*
G01*
X105750601Y-85990200D01*
G75*
G02*
X106000600Y-86240199I0J-249999D01*
G01*
G37*
G36*
G01*
X107825600Y-86240199D02*
X107825600Y-87140201D01*
G75*
G02*
X107575601Y-87390200I-249999J0D01*
G01*
X107050599Y-87390200D01*
G75*
G02*
X106800600Y-87140201I0J249999D01*
G01*
X106800600Y-86240199D01*
G75*
G02*
X107050599Y-85990200I249999J0D01*
G01*
X107575601Y-85990200D01*
G75*
G02*
X107825600Y-86240199I0J-249999D01*
G01*
G37*
%TD*%
%TO.C,F1*%
G36*
G01*
X123637200Y-50253600D02*
X122387200Y-50253600D01*
G75*
G02*
X122137200Y-50003600I0J250000D01*
G01*
X122137200Y-49253600D01*
G75*
G02*
X122387200Y-49003600I250000J0D01*
G01*
X123637200Y-49003600D01*
G75*
G02*
X123887200Y-49253600I0J-250000D01*
G01*
X123887200Y-50003600D01*
G75*
G02*
X123637200Y-50253600I-250000J0D01*
G01*
G37*
G36*
G01*
X123637200Y-53053600D02*
X122387200Y-53053600D01*
G75*
G02*
X122137200Y-52803600I0J250000D01*
G01*
X122137200Y-52053600D01*
G75*
G02*
X122387200Y-51803600I250000J0D01*
G01*
X123637200Y-51803600D01*
G75*
G02*
X123887200Y-52053600I0J-250000D01*
G01*
X123887200Y-52803600D01*
G75*
G02*
X123637200Y-53053600I-250000J0D01*
G01*
G37*
%TD*%
D17*
%TO.C,D82*%
X129590800Y-64159400D03*
X129590800Y-60859400D03*
%TD*%
%TO.C,D81*%
X121005600Y-64159400D03*
X121005600Y-60859400D03*
%TD*%
%TO.C,C8*%
G36*
G01*
X141826400Y-80891400D02*
X141826400Y-79941400D01*
G75*
G02*
X142076400Y-79691400I250000J0D01*
G01*
X142576400Y-79691400D01*
G75*
G02*
X142826400Y-79941400I0J-250000D01*
G01*
X142826400Y-80891400D01*
G75*
G02*
X142576400Y-81141400I-250000J0D01*
G01*
X142076400Y-81141400D01*
G75*
G02*
X141826400Y-80891400I0J250000D01*
G01*
G37*
G36*
G01*
X139926400Y-80891400D02*
X139926400Y-79941400D01*
G75*
G02*
X140176400Y-79691400I250000J0D01*
G01*
X140676400Y-79691400D01*
G75*
G02*
X140926400Y-79941400I0J-250000D01*
G01*
X140926400Y-80891400D01*
G75*
G02*
X140676400Y-81141400I-250000J0D01*
G01*
X140176400Y-81141400D01*
G75*
G02*
X139926400Y-80891400I0J250000D01*
G01*
G37*
%TD*%
%TO.C,C7*%
G36*
G01*
X141826400Y-83202800D02*
X141826400Y-82252800D01*
G75*
G02*
X142076400Y-82002800I250000J0D01*
G01*
X142576400Y-82002800D01*
G75*
G02*
X142826400Y-82252800I0J-250000D01*
G01*
X142826400Y-83202800D01*
G75*
G02*
X142576400Y-83452800I-250000J0D01*
G01*
X142076400Y-83452800D01*
G75*
G02*
X141826400Y-83202800I0J250000D01*
G01*
G37*
G36*
G01*
X139926400Y-83202800D02*
X139926400Y-82252800D01*
G75*
G02*
X140176400Y-82002800I250000J0D01*
G01*
X140676400Y-82002800D01*
G75*
G02*
X140926400Y-82252800I0J-250000D01*
G01*
X140926400Y-83202800D01*
G75*
G02*
X140676400Y-83452800I-250000J0D01*
G01*
X140176400Y-83452800D01*
G75*
G02*
X139926400Y-83202800I0J250000D01*
G01*
G37*
%TD*%
%TO.C,C3*%
G36*
G01*
X123273800Y-90594600D02*
X124223800Y-90594600D01*
G75*
G02*
X124473800Y-90844600I0J-250000D01*
G01*
X124473800Y-91344600D01*
G75*
G02*
X124223800Y-91594600I-250000J0D01*
G01*
X123273800Y-91594600D01*
G75*
G02*
X123023800Y-91344600I0J250000D01*
G01*
X123023800Y-90844600D01*
G75*
G02*
X123273800Y-90594600I250000J0D01*
G01*
G37*
G36*
G01*
X123273800Y-88694600D02*
X124223800Y-88694600D01*
G75*
G02*
X124473800Y-88944600I0J-250000D01*
G01*
X124473800Y-89444600D01*
G75*
G02*
X124223800Y-89694600I-250000J0D01*
G01*
X123273800Y-89694600D01*
G75*
G02*
X123023800Y-89444600I0J250000D01*
G01*
X123023800Y-88944600D01*
G75*
G02*
X123273800Y-88694600I250000J0D01*
G01*
G37*
%TD*%
%TO.C,C2*%
G36*
G01*
X137762400Y-78732400D02*
X137762400Y-77782400D01*
G75*
G02*
X138012400Y-77532400I250000J0D01*
G01*
X138512400Y-77532400D01*
G75*
G02*
X138762400Y-77782400I0J-250000D01*
G01*
X138762400Y-78732400D01*
G75*
G02*
X138512400Y-78982400I-250000J0D01*
G01*
X138012400Y-78982400D01*
G75*
G02*
X137762400Y-78732400I0J250000D01*
G01*
G37*
G36*
G01*
X135862400Y-78732400D02*
X135862400Y-77782400D01*
G75*
G02*
X136112400Y-77532400I250000J0D01*
G01*
X136612400Y-77532400D01*
G75*
G02*
X136862400Y-77782400I0J-250000D01*
G01*
X136862400Y-78732400D01*
G75*
G02*
X136612400Y-78982400I-250000J0D01*
G01*
X136112400Y-78982400D01*
G75*
G02*
X135862400Y-78732400I0J250000D01*
G01*
G37*
%TD*%
%TO.C,C1*%
G36*
G01*
X121815400Y-70162400D02*
X121815400Y-71112400D01*
G75*
G02*
X121565400Y-71362400I-250000J0D01*
G01*
X121065400Y-71362400D01*
G75*
G02*
X120815400Y-71112400I0J250000D01*
G01*
X120815400Y-70162400D01*
G75*
G02*
X121065400Y-69912400I250000J0D01*
G01*
X121565400Y-69912400D01*
G75*
G02*
X121815400Y-70162400I0J-250000D01*
G01*
G37*
G36*
G01*
X123715400Y-70162400D02*
X123715400Y-71112400D01*
G75*
G02*
X123465400Y-71362400I-250000J0D01*
G01*
X122965400Y-71362400D01*
G75*
G02*
X122715400Y-71112400I0J250000D01*
G01*
X122715400Y-70162400D01*
G75*
G02*
X122965400Y-69912400I250000J0D01*
G01*
X123465400Y-69912400D01*
G75*
G02*
X123715400Y-70162400I0J-250000D01*
G01*
G37*
%TD*%
D16*
%TO.C,BOOT1*%
X97280800Y-80090400D03*
X103480800Y-83790400D03*
X97280800Y-83790400D03*
X103480800Y-80090400D03*
%TD*%
M02*
