M48
; DRILL file {KiCad (5.1.9)-1} date 01/11/21 10:55:46
; FORMAT={-:-/ absolute / inch / decimal}
; #@! TF.CreationDate,2021-01-11T10:55:46+01:00
; #@! TF.GenerationSoftware,Kicad,Pcbnew,(5.1.9)-1
; #@! TF.FileFunction,NonPlated,1,2,NPTH
FMAT,2
INCH
T1C0.0256
T2C0.0689
T3C0.1570
%
G90
G05
T1
X4.8222Y-1.7214
X5.0498Y-1.7214
T2
X3.611Y-2.148
X3.611Y-2.898
X3.611Y-3.648
X4.011Y-2.148
X4.011Y-2.898
X4.011Y-3.648
X4.361Y-2.148
X4.361Y-2.898
X4.361Y-3.648
X4.761Y-2.148
X4.761Y-2.898
X4.761Y-3.648
X5.111Y-2.148
X5.111Y-2.898
X5.111Y-3.648
X5.511Y-2.148
X5.511Y-2.898
X5.511Y-3.648
X5.861Y-2.148
X5.861Y-2.898
X5.861Y-3.648
X6.261Y-2.148
X6.261Y-2.898
X6.261Y-3.648
T3
X3.811Y-2.148
X3.811Y-2.898
X3.811Y-3.648
X4.561Y-2.148
X4.561Y-2.898
X4.561Y-3.648
X5.311Y-2.148
X5.311Y-2.898
X5.311Y-3.648
X6.061Y-2.148
X6.061Y-2.898
X6.061Y-3.648
T0
M30
