%TF.GenerationSoftware,KiCad,Pcbnew,(5.1.10)-1*%
%TF.CreationDate,2021-09-30T18:26:24+02:00*%
%TF.ProjectId,twelvekey,7477656c-7665-46b6-9579-2e6b69636164,rev?*%
%TF.SameCoordinates,Original*%
%TF.FileFunction,Paste,Bot*%
%TF.FilePolarity,Positive*%
%FSLAX46Y46*%
G04 Gerber Fmt 4.6, Leading zero omitted, Abs format (unit mm)*
G04 Created by KiCad (PCBNEW (5.1.10)-1) date 2021-09-30 18:26:24*
%MOMM*%
%LPD*%
G01*
G04 APERTURE LIST*
%ADD10R,0.900000X0.800000*%
%ADD11R,0.800000X0.900000*%
%ADD12R,1.200000X1.400000*%
%ADD13R,0.600000X1.450000*%
%ADD14R,0.300000X1.450000*%
%ADD15R,1.060000X0.650000*%
%ADD16C,0.100000*%
%ADD17R,1.800000X1.100000*%
%ADD18R,1.200000X0.900000*%
G04 APERTURE END LIST*
D10*
%TO.C,Q1*%
X152231600Y-64820800D03*
X150231600Y-63870800D03*
X150231600Y-65770800D03*
%TD*%
%TO.C,R20*%
G36*
G01*
X145484002Y-64420800D02*
X144583998Y-64420800D01*
G75*
G02*
X144334000Y-64170802I0J249998D01*
G01*
X144334000Y-63645798D01*
G75*
G02*
X144583998Y-63395800I249998J0D01*
G01*
X145484002Y-63395800D01*
G75*
G02*
X145734000Y-63645798I0J-249998D01*
G01*
X145734000Y-64170802D01*
G75*
G02*
X145484002Y-64420800I-249998J0D01*
G01*
G37*
G36*
G01*
X145484002Y-66245800D02*
X144583998Y-66245800D01*
G75*
G02*
X144334000Y-65995802I0J249998D01*
G01*
X144334000Y-65470798D01*
G75*
G02*
X144583998Y-65220800I249998J0D01*
G01*
X145484002Y-65220800D01*
G75*
G02*
X145734000Y-65470798I0J-249998D01*
G01*
X145734000Y-65995802D01*
G75*
G02*
X145484002Y-66245800I-249998J0D01*
G01*
G37*
%TD*%
%TO.C,R19*%
G36*
G01*
X147998602Y-64420800D02*
X147098598Y-64420800D01*
G75*
G02*
X146848600Y-64170802I0J249998D01*
G01*
X146848600Y-63645798D01*
G75*
G02*
X147098598Y-63395800I249998J0D01*
G01*
X147998602Y-63395800D01*
G75*
G02*
X148248600Y-63645798I0J-249998D01*
G01*
X148248600Y-64170802D01*
G75*
G02*
X147998602Y-64420800I-249998J0D01*
G01*
G37*
G36*
G01*
X147998602Y-66245800D02*
X147098598Y-66245800D01*
G75*
G02*
X146848600Y-65995802I0J249998D01*
G01*
X146848600Y-65470798D01*
G75*
G02*
X147098598Y-65220800I249998J0D01*
G01*
X147998602Y-65220800D01*
G75*
G02*
X148248600Y-65470798I0J-249998D01*
G01*
X148248600Y-65995802D01*
G75*
G02*
X147998602Y-66245800I-249998J0D01*
G01*
G37*
%TD*%
%TO.C,R18*%
G36*
G01*
X159505600Y-98189202D02*
X159505600Y-97289198D01*
G75*
G02*
X159755598Y-97039200I249998J0D01*
G01*
X160280602Y-97039200D01*
G75*
G02*
X160530600Y-97289198I0J-249998D01*
G01*
X160530600Y-98189202D01*
G75*
G02*
X160280602Y-98439200I-249998J0D01*
G01*
X159755598Y-98439200D01*
G75*
G02*
X159505600Y-98189202I0J249998D01*
G01*
G37*
G36*
G01*
X157680600Y-98189202D02*
X157680600Y-97289198D01*
G75*
G02*
X157930598Y-97039200I249998J0D01*
G01*
X158455602Y-97039200D01*
G75*
G02*
X158705600Y-97289198I0J-249998D01*
G01*
X158705600Y-98189202D01*
G75*
G02*
X158455602Y-98439200I-249998J0D01*
G01*
X157930598Y-98439200D01*
G75*
G02*
X157680600Y-98189202I0J249998D01*
G01*
G37*
%TD*%
%TO.C,R17*%
G36*
G01*
X140455600Y-98189202D02*
X140455600Y-97289198D01*
G75*
G02*
X140705598Y-97039200I249998J0D01*
G01*
X141230602Y-97039200D01*
G75*
G02*
X141480600Y-97289198I0J-249998D01*
G01*
X141480600Y-98189202D01*
G75*
G02*
X141230602Y-98439200I-249998J0D01*
G01*
X140705598Y-98439200D01*
G75*
G02*
X140455600Y-98189202I0J249998D01*
G01*
G37*
G36*
G01*
X138630600Y-98189202D02*
X138630600Y-97289198D01*
G75*
G02*
X138880598Y-97039200I249998J0D01*
G01*
X139405602Y-97039200D01*
G75*
G02*
X139655600Y-97289198I0J-249998D01*
G01*
X139655600Y-98189202D01*
G75*
G02*
X139405602Y-98439200I-249998J0D01*
G01*
X138880598Y-98439200D01*
G75*
G02*
X138630600Y-98189202I0J249998D01*
G01*
G37*
%TD*%
%TO.C,R16*%
G36*
G01*
X121405600Y-98189202D02*
X121405600Y-97289198D01*
G75*
G02*
X121655598Y-97039200I249998J0D01*
G01*
X122180602Y-97039200D01*
G75*
G02*
X122430600Y-97289198I0J-249998D01*
G01*
X122430600Y-98189202D01*
G75*
G02*
X122180602Y-98439200I-249998J0D01*
G01*
X121655598Y-98439200D01*
G75*
G02*
X121405600Y-98189202I0J249998D01*
G01*
G37*
G36*
G01*
X119580600Y-98189202D02*
X119580600Y-97289198D01*
G75*
G02*
X119830598Y-97039200I249998J0D01*
G01*
X120355602Y-97039200D01*
G75*
G02*
X120605600Y-97289198I0J-249998D01*
G01*
X120605600Y-98189202D01*
G75*
G02*
X120355602Y-98439200I-249998J0D01*
G01*
X119830598Y-98439200D01*
G75*
G02*
X119580600Y-98189202I0J249998D01*
G01*
G37*
%TD*%
%TO.C,R15*%
G36*
G01*
X102355600Y-98163802D02*
X102355600Y-97263798D01*
G75*
G02*
X102605598Y-97013800I249998J0D01*
G01*
X103130602Y-97013800D01*
G75*
G02*
X103380600Y-97263798I0J-249998D01*
G01*
X103380600Y-98163802D01*
G75*
G02*
X103130602Y-98413800I-249998J0D01*
G01*
X102605598Y-98413800D01*
G75*
G02*
X102355600Y-98163802I0J249998D01*
G01*
G37*
G36*
G01*
X100530600Y-98163802D02*
X100530600Y-97263798D01*
G75*
G02*
X100780598Y-97013800I249998J0D01*
G01*
X101305602Y-97013800D01*
G75*
G02*
X101555600Y-97263798I0J-249998D01*
G01*
X101555600Y-98163802D01*
G75*
G02*
X101305602Y-98413800I-249998J0D01*
G01*
X100780598Y-98413800D01*
G75*
G02*
X100530600Y-98163802I0J249998D01*
G01*
G37*
%TD*%
%TO.C,R14*%
G36*
G01*
X159480200Y-79139202D02*
X159480200Y-78239198D01*
G75*
G02*
X159730198Y-77989200I249998J0D01*
G01*
X160255202Y-77989200D01*
G75*
G02*
X160505200Y-78239198I0J-249998D01*
G01*
X160505200Y-79139202D01*
G75*
G02*
X160255202Y-79389200I-249998J0D01*
G01*
X159730198Y-79389200D01*
G75*
G02*
X159480200Y-79139202I0J249998D01*
G01*
G37*
G36*
G01*
X157655200Y-79139202D02*
X157655200Y-78239198D01*
G75*
G02*
X157905198Y-77989200I249998J0D01*
G01*
X158430202Y-77989200D01*
G75*
G02*
X158680200Y-78239198I0J-249998D01*
G01*
X158680200Y-79139202D01*
G75*
G02*
X158430202Y-79389200I-249998J0D01*
G01*
X157905198Y-79389200D01*
G75*
G02*
X157655200Y-79139202I0J249998D01*
G01*
G37*
%TD*%
%TO.C,R13*%
G36*
G01*
X140455600Y-79139202D02*
X140455600Y-78239198D01*
G75*
G02*
X140705598Y-77989200I249998J0D01*
G01*
X141230602Y-77989200D01*
G75*
G02*
X141480600Y-78239198I0J-249998D01*
G01*
X141480600Y-79139202D01*
G75*
G02*
X141230602Y-79389200I-249998J0D01*
G01*
X140705598Y-79389200D01*
G75*
G02*
X140455600Y-79139202I0J249998D01*
G01*
G37*
G36*
G01*
X138630600Y-79139202D02*
X138630600Y-78239198D01*
G75*
G02*
X138880598Y-77989200I249998J0D01*
G01*
X139405602Y-77989200D01*
G75*
G02*
X139655600Y-78239198I0J-249998D01*
G01*
X139655600Y-79139202D01*
G75*
G02*
X139405602Y-79389200I-249998J0D01*
G01*
X138880598Y-79389200D01*
G75*
G02*
X138630600Y-79139202I0J249998D01*
G01*
G37*
%TD*%
%TO.C,R12*%
G36*
G01*
X115474800Y-81287198D02*
X115474800Y-82187202D01*
G75*
G02*
X115224802Y-82437200I-249998J0D01*
G01*
X114699798Y-82437200D01*
G75*
G02*
X114449800Y-82187202I0J249998D01*
G01*
X114449800Y-81287198D01*
G75*
G02*
X114699798Y-81037200I249998J0D01*
G01*
X115224802Y-81037200D01*
G75*
G02*
X115474800Y-81287198I0J-249998D01*
G01*
G37*
G36*
G01*
X117299800Y-81287198D02*
X117299800Y-82187202D01*
G75*
G02*
X117049802Y-82437200I-249998J0D01*
G01*
X116524798Y-82437200D01*
G75*
G02*
X116274800Y-82187202I0J249998D01*
G01*
X116274800Y-81287198D01*
G75*
G02*
X116524798Y-81037200I249998J0D01*
G01*
X117049802Y-81037200D01*
G75*
G02*
X117299800Y-81287198I0J-249998D01*
G01*
G37*
%TD*%
%TO.C,R11*%
G36*
G01*
X102330200Y-79139202D02*
X102330200Y-78239198D01*
G75*
G02*
X102580198Y-77989200I249998J0D01*
G01*
X103105202Y-77989200D01*
G75*
G02*
X103355200Y-78239198I0J-249998D01*
G01*
X103355200Y-79139202D01*
G75*
G02*
X103105202Y-79389200I-249998J0D01*
G01*
X102580198Y-79389200D01*
G75*
G02*
X102330200Y-79139202I0J249998D01*
G01*
G37*
G36*
G01*
X100505200Y-79139202D02*
X100505200Y-78239198D01*
G75*
G02*
X100755198Y-77989200I249998J0D01*
G01*
X101280202Y-77989200D01*
G75*
G02*
X101530200Y-78239198I0J-249998D01*
G01*
X101530200Y-79139202D01*
G75*
G02*
X101280202Y-79389200I-249998J0D01*
G01*
X100755198Y-79389200D01*
G75*
G02*
X100505200Y-79139202I0J249998D01*
G01*
G37*
%TD*%
%TO.C,R10*%
G36*
G01*
X159480200Y-60089202D02*
X159480200Y-59189198D01*
G75*
G02*
X159730198Y-58939200I249998J0D01*
G01*
X160255202Y-58939200D01*
G75*
G02*
X160505200Y-59189198I0J-249998D01*
G01*
X160505200Y-60089202D01*
G75*
G02*
X160255202Y-60339200I-249998J0D01*
G01*
X159730198Y-60339200D01*
G75*
G02*
X159480200Y-60089202I0J249998D01*
G01*
G37*
G36*
G01*
X157655200Y-60089202D02*
X157655200Y-59189198D01*
G75*
G02*
X157905198Y-58939200I249998J0D01*
G01*
X158430202Y-58939200D01*
G75*
G02*
X158680200Y-59189198I0J-249998D01*
G01*
X158680200Y-60089202D01*
G75*
G02*
X158430202Y-60339200I-249998J0D01*
G01*
X157905198Y-60339200D01*
G75*
G02*
X157655200Y-60089202I0J249998D01*
G01*
G37*
%TD*%
%TO.C,R4*%
G36*
G01*
X140481000Y-60089202D02*
X140481000Y-59189198D01*
G75*
G02*
X140730998Y-58939200I249998J0D01*
G01*
X141256002Y-58939200D01*
G75*
G02*
X141506000Y-59189198I0J-249998D01*
G01*
X141506000Y-60089202D01*
G75*
G02*
X141256002Y-60339200I-249998J0D01*
G01*
X140730998Y-60339200D01*
G75*
G02*
X140481000Y-60089202I0J249998D01*
G01*
G37*
G36*
G01*
X138656000Y-60089202D02*
X138656000Y-59189198D01*
G75*
G02*
X138905998Y-58939200I249998J0D01*
G01*
X139431002Y-58939200D01*
G75*
G02*
X139681000Y-59189198I0J-249998D01*
G01*
X139681000Y-60089202D01*
G75*
G02*
X139431002Y-60339200I-249998J0D01*
G01*
X138905998Y-60339200D01*
G75*
G02*
X138656000Y-60089202I0J249998D01*
G01*
G37*
%TD*%
%TO.C,R3*%
G36*
G01*
X112934800Y-62440398D02*
X112934800Y-63340402D01*
G75*
G02*
X112684802Y-63590400I-249998J0D01*
G01*
X112159798Y-63590400D01*
G75*
G02*
X111909800Y-63340402I0J249998D01*
G01*
X111909800Y-62440398D01*
G75*
G02*
X112159798Y-62190400I249998J0D01*
G01*
X112684802Y-62190400D01*
G75*
G02*
X112934800Y-62440398I0J-249998D01*
G01*
G37*
G36*
G01*
X114759800Y-62440398D02*
X114759800Y-63340402D01*
G75*
G02*
X114509802Y-63590400I-249998J0D01*
G01*
X113984798Y-63590400D01*
G75*
G02*
X113734800Y-63340402I0J249998D01*
G01*
X113734800Y-62440398D01*
G75*
G02*
X113984798Y-62190400I249998J0D01*
G01*
X114509802Y-62190400D01*
G75*
G02*
X114759800Y-62440398I0J-249998D01*
G01*
G37*
%TD*%
%TO.C,R1*%
G36*
G01*
X102406400Y-60089202D02*
X102406400Y-59189198D01*
G75*
G02*
X102656398Y-58939200I249998J0D01*
G01*
X103181402Y-58939200D01*
G75*
G02*
X103431400Y-59189198I0J-249998D01*
G01*
X103431400Y-60089202D01*
G75*
G02*
X103181402Y-60339200I-249998J0D01*
G01*
X102656398Y-60339200D01*
G75*
G02*
X102406400Y-60089202I0J249998D01*
G01*
G37*
G36*
G01*
X100581400Y-60089202D02*
X100581400Y-59189198D01*
G75*
G02*
X100831398Y-58939200I249998J0D01*
G01*
X101356402Y-58939200D01*
G75*
G02*
X101606400Y-59189198I0J-249998D01*
G01*
X101606400Y-60089202D01*
G75*
G02*
X101356402Y-60339200I-249998J0D01*
G01*
X100831398Y-60339200D01*
G75*
G02*
X100581400Y-60089202I0J249998D01*
G01*
G37*
%TD*%
D11*
%TO.C,D6*%
X144475200Y-95589600D03*
X145425200Y-93589600D03*
X143525200Y-93589600D03*
%TD*%
%TO.C,D5*%
X106349800Y-95564200D03*
X107299800Y-93564200D03*
X105399800Y-93564200D03*
%TD*%
%TO.C,D4*%
X144399000Y-76514200D03*
X145349000Y-74514200D03*
X143449000Y-74514200D03*
%TD*%
%TO.C,D3*%
X106273600Y-76514200D03*
X107223600Y-74514200D03*
X105323600Y-74514200D03*
%TD*%
%TO.C,D2*%
X144424400Y-57616600D03*
X145374400Y-55616600D03*
X143474400Y-55616600D03*
%TD*%
%TO.C,D1*%
X106324400Y-57261000D03*
X107274400Y-55261000D03*
X105374400Y-55261000D03*
%TD*%
D12*
%TO.C,X1*%
X137298800Y-84132600D03*
X137298800Y-81932600D03*
X135598800Y-81932600D03*
X135598800Y-84132600D03*
%TD*%
D13*
%TO.C,USB1*%
X128624400Y-45167600D03*
X127824400Y-45167600D03*
X122924400Y-45167600D03*
X122124400Y-45167600D03*
X122124400Y-45167600D03*
X122924400Y-45167600D03*
X127824400Y-45167600D03*
X128624400Y-45167600D03*
D14*
X123624400Y-45167600D03*
X124124400Y-45167600D03*
X124624400Y-45167600D03*
X125624400Y-45167600D03*
X126124400Y-45167600D03*
X126624400Y-45167600D03*
X127124400Y-45167600D03*
X125124400Y-45167600D03*
%TD*%
D15*
%TO.C,U2*%
X124274400Y-56616600D03*
X124274400Y-55666600D03*
X124274400Y-57566600D03*
X126474400Y-57566600D03*
X126474400Y-56616600D03*
X126474400Y-55666600D03*
%TD*%
D16*
%TO.C,U1*%
G36*
X125236235Y-77453528D02*
G01*
X124847326Y-77842437D01*
X123715955Y-76711066D01*
X124104864Y-76322157D01*
X125236235Y-77453528D01*
G37*
G36*
X124670550Y-78019214D02*
G01*
X124281641Y-78408123D01*
X123150270Y-77276752D01*
X123539179Y-76887843D01*
X124670550Y-78019214D01*
G37*
G36*
X124104864Y-78584899D02*
G01*
X123715955Y-78973808D01*
X122584584Y-77842437D01*
X122973493Y-77453528D01*
X124104864Y-78584899D01*
G37*
G36*
X123539179Y-79150584D02*
G01*
X123150270Y-79539493D01*
X122018899Y-78408122D01*
X122407808Y-78019213D01*
X123539179Y-79150584D01*
G37*
G36*
X122973493Y-79716270D02*
G01*
X122584584Y-80105179D01*
X121453213Y-78973808D01*
X121842122Y-78584899D01*
X122973493Y-79716270D01*
G37*
G36*
X122407808Y-80281955D02*
G01*
X122018899Y-80670864D01*
X120887528Y-79539493D01*
X121276437Y-79150584D01*
X122407808Y-80281955D01*
G37*
G36*
X121842123Y-80847641D02*
G01*
X121453214Y-81236550D01*
X120321843Y-80105179D01*
X120710752Y-79716270D01*
X121842123Y-80847641D01*
G37*
G36*
X121276437Y-81413326D02*
G01*
X120887528Y-81802235D01*
X119756157Y-80670864D01*
X120145066Y-80281955D01*
X121276437Y-81413326D01*
G37*
G36*
X120887528Y-82332565D02*
G01*
X121276437Y-82721474D01*
X120145066Y-83852845D01*
X119756157Y-83463936D01*
X120887528Y-82332565D01*
G37*
G36*
X121453214Y-82898250D02*
G01*
X121842123Y-83287159D01*
X120710752Y-84418530D01*
X120321843Y-84029621D01*
X121453214Y-82898250D01*
G37*
G36*
X122018899Y-83463936D02*
G01*
X122407808Y-83852845D01*
X121276437Y-84984216D01*
X120887528Y-84595307D01*
X122018899Y-83463936D01*
G37*
G36*
X122584584Y-84029621D02*
G01*
X122973493Y-84418530D01*
X121842122Y-85549901D01*
X121453213Y-85160992D01*
X122584584Y-84029621D01*
G37*
G36*
X123150270Y-84595307D02*
G01*
X123539179Y-84984216D01*
X122407808Y-86115587D01*
X122018899Y-85726678D01*
X123150270Y-84595307D01*
G37*
G36*
X123715955Y-85160992D02*
G01*
X124104864Y-85549901D01*
X122973493Y-86681272D01*
X122584584Y-86292363D01*
X123715955Y-85160992D01*
G37*
G36*
X124281641Y-85726677D02*
G01*
X124670550Y-86115586D01*
X123539179Y-87246957D01*
X123150270Y-86858048D01*
X124281641Y-85726677D01*
G37*
G36*
X124847326Y-86292363D02*
G01*
X125236235Y-86681272D01*
X124104864Y-87812643D01*
X123715955Y-87423734D01*
X124847326Y-86292363D01*
G37*
G36*
X127286845Y-87423734D02*
G01*
X126897936Y-87812643D01*
X125766565Y-86681272D01*
X126155474Y-86292363D01*
X127286845Y-87423734D01*
G37*
G36*
X127852530Y-86858048D02*
G01*
X127463621Y-87246957D01*
X126332250Y-86115586D01*
X126721159Y-85726677D01*
X127852530Y-86858048D01*
G37*
G36*
X128418216Y-86292363D02*
G01*
X128029307Y-86681272D01*
X126897936Y-85549901D01*
X127286845Y-85160992D01*
X128418216Y-86292363D01*
G37*
G36*
X128983901Y-85726678D02*
G01*
X128594992Y-86115587D01*
X127463621Y-84984216D01*
X127852530Y-84595307D01*
X128983901Y-85726678D01*
G37*
G36*
X129549587Y-85160992D02*
G01*
X129160678Y-85549901D01*
X128029307Y-84418530D01*
X128418216Y-84029621D01*
X129549587Y-85160992D01*
G37*
G36*
X130115272Y-84595307D02*
G01*
X129726363Y-84984216D01*
X128594992Y-83852845D01*
X128983901Y-83463936D01*
X130115272Y-84595307D01*
G37*
G36*
X130680957Y-84029621D02*
G01*
X130292048Y-84418530D01*
X129160677Y-83287159D01*
X129549586Y-82898250D01*
X130680957Y-84029621D01*
G37*
G36*
X131246643Y-83463936D02*
G01*
X130857734Y-83852845D01*
X129726363Y-82721474D01*
X130115272Y-82332565D01*
X131246643Y-83463936D01*
G37*
G36*
X130857734Y-80281955D02*
G01*
X131246643Y-80670864D01*
X130115272Y-81802235D01*
X129726363Y-81413326D01*
X130857734Y-80281955D01*
G37*
G36*
X130292048Y-79716270D02*
G01*
X130680957Y-80105179D01*
X129549586Y-81236550D01*
X129160677Y-80847641D01*
X130292048Y-79716270D01*
G37*
G36*
X129726363Y-79150584D02*
G01*
X130115272Y-79539493D01*
X128983901Y-80670864D01*
X128594992Y-80281955D01*
X129726363Y-79150584D01*
G37*
G36*
X129160678Y-78584899D02*
G01*
X129549587Y-78973808D01*
X128418216Y-80105179D01*
X128029307Y-79716270D01*
X129160678Y-78584899D01*
G37*
G36*
X128594992Y-78019213D02*
G01*
X128983901Y-78408122D01*
X127852530Y-79539493D01*
X127463621Y-79150584D01*
X128594992Y-78019213D01*
G37*
G36*
X128029307Y-77453528D02*
G01*
X128418216Y-77842437D01*
X127286845Y-78973808D01*
X126897936Y-78584899D01*
X128029307Y-77453528D01*
G37*
G36*
X127463621Y-76887843D02*
G01*
X127852530Y-77276752D01*
X126721159Y-78408123D01*
X126332250Y-78019214D01*
X127463621Y-76887843D01*
G37*
G36*
X126897936Y-76322157D02*
G01*
X127286845Y-76711066D01*
X126155474Y-77842437D01*
X125766565Y-77453528D01*
X126897936Y-76322157D01*
G37*
%TD*%
D17*
%TO.C,RESET*%
X145083600Y-81411200D03*
X151283600Y-85111200D03*
X145083600Y-85111200D03*
X151283600Y-81411200D03*
%TD*%
%TO.C,R9*%
G36*
G01*
X122233100Y-59570198D02*
X122233100Y-60470202D01*
G75*
G02*
X121983102Y-60720200I-249998J0D01*
G01*
X121458098Y-60720200D01*
G75*
G02*
X121208100Y-60470202I0J249998D01*
G01*
X121208100Y-59570198D01*
G75*
G02*
X121458098Y-59320200I249998J0D01*
G01*
X121983102Y-59320200D01*
G75*
G02*
X122233100Y-59570198I0J-249998D01*
G01*
G37*
G36*
G01*
X124058100Y-59570198D02*
X124058100Y-60470202D01*
G75*
G02*
X123808102Y-60720200I-249998J0D01*
G01*
X123283098Y-60720200D01*
G75*
G02*
X123033100Y-60470202I0J249998D01*
G01*
X123033100Y-59570198D01*
G75*
G02*
X123283098Y-59320200I249998J0D01*
G01*
X123808102Y-59320200D01*
G75*
G02*
X124058100Y-59570198I0J-249998D01*
G01*
G37*
%TD*%
%TO.C,R8*%
G36*
G01*
X127119802Y-63074600D02*
X126219798Y-63074600D01*
G75*
G02*
X125969800Y-62824602I0J249998D01*
G01*
X125969800Y-62299598D01*
G75*
G02*
X126219798Y-62049600I249998J0D01*
G01*
X127119802Y-62049600D01*
G75*
G02*
X127369800Y-62299598I0J-249998D01*
G01*
X127369800Y-62824602D01*
G75*
G02*
X127119802Y-63074600I-249998J0D01*
G01*
G37*
G36*
G01*
X127119802Y-64899600D02*
X126219798Y-64899600D01*
G75*
G02*
X125969800Y-64649602I0J249998D01*
G01*
X125969800Y-64124598D01*
G75*
G02*
X126219798Y-63874600I249998J0D01*
G01*
X127119802Y-63874600D01*
G75*
G02*
X127369800Y-64124598I0J-249998D01*
G01*
X127369800Y-64649602D01*
G75*
G02*
X127119802Y-64899600I-249998J0D01*
G01*
G37*
%TD*%
%TO.C,R7*%
G36*
G01*
X124529002Y-63074600D02*
X123628998Y-63074600D01*
G75*
G02*
X123379000Y-62824602I0J249998D01*
G01*
X123379000Y-62299598D01*
G75*
G02*
X123628998Y-62049600I249998J0D01*
G01*
X124529002Y-62049600D01*
G75*
G02*
X124779000Y-62299598I0J-249998D01*
G01*
X124779000Y-62824602D01*
G75*
G02*
X124529002Y-63074600I-249998J0D01*
G01*
G37*
G36*
G01*
X124529002Y-64899600D02*
X123628998Y-64899600D01*
G75*
G02*
X123379000Y-64649602I0J249998D01*
G01*
X123379000Y-64124598D01*
G75*
G02*
X123628998Y-63874600I249998J0D01*
G01*
X124529002Y-63874600D01*
G75*
G02*
X124779000Y-64124598I0J-249998D01*
G01*
X124779000Y-64649602D01*
G75*
G02*
X124529002Y-64899600I-249998J0D01*
G01*
G37*
%TD*%
%TO.C,R6*%
G36*
G01*
X144024400Y-47251198D02*
X144024400Y-48151202D01*
G75*
G02*
X143774402Y-48401200I-249998J0D01*
G01*
X143249398Y-48401200D01*
G75*
G02*
X142999400Y-48151202I0J249998D01*
G01*
X142999400Y-47251198D01*
G75*
G02*
X143249398Y-47001200I249998J0D01*
G01*
X143774402Y-47001200D01*
G75*
G02*
X144024400Y-47251198I0J-249998D01*
G01*
G37*
G36*
G01*
X145849400Y-47251198D02*
X145849400Y-48151202D01*
G75*
G02*
X145599402Y-48401200I-249998J0D01*
G01*
X145074398Y-48401200D01*
G75*
G02*
X144824400Y-48151202I0J249998D01*
G01*
X144824400Y-47251198D01*
G75*
G02*
X145074398Y-47001200I249998J0D01*
G01*
X145599402Y-47001200D01*
G75*
G02*
X145849400Y-47251198I0J-249998D01*
G01*
G37*
%TD*%
%TO.C,R5*%
G36*
G01*
X106700900Y-48049602D02*
X106700900Y-47149598D01*
G75*
G02*
X106950898Y-46899600I249998J0D01*
G01*
X107475902Y-46899600D01*
G75*
G02*
X107725900Y-47149598I0J-249998D01*
G01*
X107725900Y-48049602D01*
G75*
G02*
X107475902Y-48299600I-249998J0D01*
G01*
X106950898Y-48299600D01*
G75*
G02*
X106700900Y-48049602I0J249998D01*
G01*
G37*
G36*
G01*
X104875900Y-48049602D02*
X104875900Y-47149598D01*
G75*
G02*
X105125898Y-46899600I249998J0D01*
G01*
X105650902Y-46899600D01*
G75*
G02*
X105900900Y-47149598I0J-249998D01*
G01*
X105900900Y-48049602D01*
G75*
G02*
X105650902Y-48299600I-249998J0D01*
G01*
X105125898Y-48299600D01*
G75*
G02*
X104875900Y-48049602I0J249998D01*
G01*
G37*
%TD*%
%TO.C,R2*%
G36*
G01*
X155644002Y-82988200D02*
X154743998Y-82988200D01*
G75*
G02*
X154494000Y-82738202I0J249998D01*
G01*
X154494000Y-82213198D01*
G75*
G02*
X154743998Y-81963200I249998J0D01*
G01*
X155644002Y-81963200D01*
G75*
G02*
X155894000Y-82213198I0J-249998D01*
G01*
X155894000Y-82738202D01*
G75*
G02*
X155644002Y-82988200I-249998J0D01*
G01*
G37*
G36*
G01*
X155644002Y-84813200D02*
X154743998Y-84813200D01*
G75*
G02*
X154494000Y-84563202I0J249998D01*
G01*
X154494000Y-84038198D01*
G75*
G02*
X154743998Y-83788200I249998J0D01*
G01*
X155644002Y-83788200D01*
G75*
G02*
X155894000Y-84038198I0J-249998D01*
G01*
X155894000Y-84563202D01*
G75*
G02*
X155644002Y-84813200I-249998J0D01*
G01*
G37*
%TD*%
%TO.C,F1*%
G36*
G01*
X123637200Y-50253600D02*
X122387200Y-50253600D01*
G75*
G02*
X122137200Y-50003600I0J250000D01*
G01*
X122137200Y-49253600D01*
G75*
G02*
X122387200Y-49003600I250000J0D01*
G01*
X123637200Y-49003600D01*
G75*
G02*
X123887200Y-49253600I0J-250000D01*
G01*
X123887200Y-50003600D01*
G75*
G02*
X123637200Y-50253600I-250000J0D01*
G01*
G37*
G36*
G01*
X123637200Y-53053600D02*
X122387200Y-53053600D01*
G75*
G02*
X122137200Y-52803600I0J250000D01*
G01*
X122137200Y-52053600D01*
G75*
G02*
X122387200Y-51803600I250000J0D01*
G01*
X123637200Y-51803600D01*
G75*
G02*
X123887200Y-52053600I0J-250000D01*
G01*
X123887200Y-52803600D01*
G75*
G02*
X123637200Y-53053600I-250000J0D01*
G01*
G37*
%TD*%
D18*
%TO.C,D8*%
X129286000Y-65607200D03*
X129286000Y-62307200D03*
%TD*%
%TO.C,D7*%
X121412000Y-65581800D03*
X121412000Y-62281800D03*
%TD*%
%TO.C,C8*%
G36*
G01*
X140962800Y-82390000D02*
X140962800Y-81440000D01*
G75*
G02*
X141212800Y-81190000I250000J0D01*
G01*
X141712800Y-81190000D01*
G75*
G02*
X141962800Y-81440000I0J-250000D01*
G01*
X141962800Y-82390000D01*
G75*
G02*
X141712800Y-82640000I-250000J0D01*
G01*
X141212800Y-82640000D01*
G75*
G02*
X140962800Y-82390000I0J250000D01*
G01*
G37*
G36*
G01*
X139062800Y-82390000D02*
X139062800Y-81440000D01*
G75*
G02*
X139312800Y-81190000I250000J0D01*
G01*
X139812800Y-81190000D01*
G75*
G02*
X140062800Y-81440000I0J-250000D01*
G01*
X140062800Y-82390000D01*
G75*
G02*
X139812800Y-82640000I-250000J0D01*
G01*
X139312800Y-82640000D01*
G75*
G02*
X139062800Y-82390000I0J250000D01*
G01*
G37*
%TD*%
%TO.C,C7*%
G36*
G01*
X140962800Y-84701400D02*
X140962800Y-83751400D01*
G75*
G02*
X141212800Y-83501400I250000J0D01*
G01*
X141712800Y-83501400D01*
G75*
G02*
X141962800Y-83751400I0J-250000D01*
G01*
X141962800Y-84701400D01*
G75*
G02*
X141712800Y-84951400I-250000J0D01*
G01*
X141212800Y-84951400D01*
G75*
G02*
X140962800Y-84701400I0J250000D01*
G01*
G37*
G36*
G01*
X139062800Y-84701400D02*
X139062800Y-83751400D01*
G75*
G02*
X139312800Y-83501400I250000J0D01*
G01*
X139812800Y-83501400D01*
G75*
G02*
X140062800Y-83751400I0J-250000D01*
G01*
X140062800Y-84701400D01*
G75*
G02*
X139812800Y-84951400I-250000J0D01*
G01*
X139312800Y-84951400D01*
G75*
G02*
X139062800Y-84701400I0J250000D01*
G01*
G37*
%TD*%
%TO.C,C3*%
G36*
G01*
X123832600Y-92652000D02*
X124782600Y-92652000D01*
G75*
G02*
X125032600Y-92902000I0J-250000D01*
G01*
X125032600Y-93402000D01*
G75*
G02*
X124782600Y-93652000I-250000J0D01*
G01*
X123832600Y-93652000D01*
G75*
G02*
X123582600Y-93402000I0J250000D01*
G01*
X123582600Y-92902000D01*
G75*
G02*
X123832600Y-92652000I250000J0D01*
G01*
G37*
G36*
G01*
X123832600Y-90752000D02*
X124782600Y-90752000D01*
G75*
G02*
X125032600Y-91002000I0J-250000D01*
G01*
X125032600Y-91502000D01*
G75*
G02*
X124782600Y-91752000I-250000J0D01*
G01*
X123832600Y-91752000D01*
G75*
G02*
X123582600Y-91502000I0J250000D01*
G01*
X123582600Y-91002000D01*
G75*
G02*
X123832600Y-90752000I250000J0D01*
G01*
G37*
%TD*%
%TO.C,C2*%
G36*
G01*
X131833722Y-75949629D02*
X131161971Y-75277878D01*
G75*
G02*
X131161971Y-74924324I176777J176777D01*
G01*
X131515524Y-74570771D01*
G75*
G02*
X131869078Y-74570771I176777J-176777D01*
G01*
X132540829Y-75242522D01*
G75*
G02*
X132540829Y-75596076I-176777J-176777D01*
G01*
X132187276Y-75949629D01*
G75*
G02*
X131833722Y-75949629I-176777J176777D01*
G01*
G37*
G36*
G01*
X130490220Y-77293131D02*
X129818469Y-76621380D01*
G75*
G02*
X129818469Y-76267826I176777J176777D01*
G01*
X130172022Y-75914273D01*
G75*
G02*
X130525576Y-75914273I176777J-176777D01*
G01*
X131197327Y-76586024D01*
G75*
G02*
X131197327Y-76939578I-176777J-176777D01*
G01*
X130843774Y-77293131D01*
G75*
G02*
X130490220Y-77293131I-176777J176777D01*
G01*
G37*
%TD*%
%TO.C,C1*%
G36*
G01*
X121673200Y-70162400D02*
X121673200Y-71112400D01*
G75*
G02*
X121423200Y-71362400I-250000J0D01*
G01*
X120923200Y-71362400D01*
G75*
G02*
X120673200Y-71112400I0J250000D01*
G01*
X120673200Y-70162400D01*
G75*
G02*
X120923200Y-69912400I250000J0D01*
G01*
X121423200Y-69912400D01*
G75*
G02*
X121673200Y-70162400I0J-250000D01*
G01*
G37*
G36*
G01*
X123573200Y-70162400D02*
X123573200Y-71112400D01*
G75*
G02*
X123323200Y-71362400I-250000J0D01*
G01*
X122823200Y-71362400D01*
G75*
G02*
X122573200Y-71112400I0J250000D01*
G01*
X122573200Y-70162400D01*
G75*
G02*
X122823200Y-69912400I250000J0D01*
G01*
X123323200Y-69912400D01*
G75*
G02*
X123573200Y-70162400I0J-250000D01*
G01*
G37*
%TD*%
D17*
%TO.C,BOOT*%
X102208400Y-81309600D03*
X108408400Y-85009600D03*
X102208400Y-85009600D03*
X108408400Y-81309600D03*
%TD*%
M02*
