M48
; DRILL file {KiCad (5.1.10)-1} date 09/30/21 18:26:25
; FORMAT={-:-/ absolute / metric / decimal}
; #@! TF.CreationDate,2021-09-30T18:26:25+02:00
; #@! TF.GenerationSoftware,Kicad,Pcbnew,(5.1.10)-1
; #@! TF.FileFunction,Plated,1,2,PTH
FMAT,2
METRIC
T1C0.400
T2C0.600
T3C0.650
T4C1.040
T5C1.470
%
G90
G05
T1
X106.426Y-87.884
X108.991Y-71.044
X109.195Y-56.464
X110.134Y-68.783
X112.522Y-83.134
X118.821Y-58.141
X118.999Y-56.261
X122.377Y-90.754
X123.012Y-47.828
X123.215Y-73.05
X124.841Y-71.653
X125.451Y-79.273
X126.34Y-89.662
X126.467Y-70.002
X126.492Y-82.677
X127.533Y-75.082
X127.838Y-47.803
X128.168Y-88.671
X128.27Y-82.042
X128.956Y-88.011
X128.981Y-58.09
X129.007Y-56.261
X129.921Y-86.995
X130.099Y-67.92
X133.147Y-86.411
X142.469Y-63.881
X145.11Y-87.63
X146.279Y-67.742
X147.98Y-80.569
T3
X124.308Y-98.222
X125.578Y-98.222
X126.848Y-98.222
X128.118Y-98.222
X129.388Y-98.222
X130.658Y-98.222
T4
X95.529Y-59.639
X95.529Y-78.689
X95.529Y-97.739
X98.069Y-59.639
X98.069Y-78.689
X98.069Y-97.739
X114.579Y-59.639
X114.579Y-78.689
X114.579Y-97.739
X117.119Y-59.639
X117.119Y-78.689
X117.119Y-97.739
X133.629Y-59.639
X133.629Y-78.689
X133.629Y-97.739
X136.169Y-59.639
X136.169Y-78.689
X136.169Y-97.739
X152.679Y-59.639
X152.679Y-78.689
X152.679Y-97.739
X155.219Y-59.639
X155.219Y-78.689
X155.219Y-97.739
T5
X92.989Y-52.019
X92.989Y-71.069
X92.989Y-90.119
X99.339Y-49.479
X99.339Y-68.529
X99.339Y-87.579
X112.039Y-52.019
X112.039Y-71.069
X112.039Y-90.119
X118.389Y-49.479
X118.389Y-68.529
X118.389Y-87.579
X131.089Y-52.019
X131.089Y-71.069
X131.089Y-90.119
X137.439Y-49.479
X137.439Y-68.529
X137.439Y-87.579
X150.139Y-52.019
X150.139Y-71.069
X150.139Y-90.119
X156.489Y-49.479
X156.489Y-68.529
X156.489Y-87.579
T2
G00X121.054Y-39.773
M15
G01X121.054Y-40.373
M16
G05
G00X121.054Y-43.703
M15
G01X121.054Y-44.803
M16
G05
G00X129.694Y-39.773
M15
G01X129.694Y-40.373
M16
G05
G00X129.694Y-43.703
M15
G01X129.694Y-44.803
M16
G05
T0
M30
