%TF.GenerationSoftware,KiCad,Pcbnew,(5.1.10)-1*%
%TF.CreationDate,2021-09-30T18:26:24+02:00*%
%TF.ProjectId,twelvekey,7477656c-7665-46b6-9579-2e6b69636164,rev?*%
%TF.SameCoordinates,Original*%
%TF.FileFunction,Legend,Top*%
%TF.FilePolarity,Positive*%
%FSLAX46Y46*%
G04 Gerber Fmt 4.6, Leading zero omitted, Abs format (unit mm)*
G04 Created by KiCad (PCBNEW (5.1.10)-1) date 2021-09-30 18:26:24*
%MOMM*%
%LPD*%
G01*
G04 APERTURE LIST*
%ADD10C,0.150000*%
%ADD11C,0.120000*%
G04 APERTURE END LIST*
D10*
X130357600Y-96189742D02*
X130329028Y-96246885D01*
X130329028Y-96332600D01*
X130357600Y-96418314D01*
X130414742Y-96475457D01*
X130471885Y-96504028D01*
X130586171Y-96532600D01*
X130671885Y-96532600D01*
X130786171Y-96504028D01*
X130843314Y-96475457D01*
X130900457Y-96418314D01*
X130929028Y-96332600D01*
X130929028Y-96275457D01*
X130900457Y-96189742D01*
X130871885Y-96161171D01*
X130671885Y-96161171D01*
X130671885Y-96275457D01*
X130929028Y-95904028D02*
X130329028Y-95904028D01*
X130929028Y-95561171D01*
X130329028Y-95561171D01*
X130929028Y-95275457D02*
X130329028Y-95275457D01*
X130329028Y-95132600D01*
X130357600Y-95046885D01*
X130414742Y-94989742D01*
X130471885Y-94961171D01*
X130586171Y-94932600D01*
X130671885Y-94932600D01*
X130786171Y-94961171D01*
X130843314Y-94989742D01*
X130900457Y-95046885D01*
X130929028Y-95132600D01*
X130929028Y-95275457D01*
X129684428Y-96548457D02*
X129084428Y-96548457D01*
X129513000Y-96348457D01*
X129084428Y-96148457D01*
X129684428Y-96148457D01*
X129084428Y-95748457D02*
X129084428Y-95634171D01*
X129113000Y-95577028D01*
X129170142Y-95519885D01*
X129284428Y-95491314D01*
X129484428Y-95491314D01*
X129598714Y-95519885D01*
X129655857Y-95577028D01*
X129684428Y-95634171D01*
X129684428Y-95748457D01*
X129655857Y-95805600D01*
X129598714Y-95862742D01*
X129484428Y-95891314D01*
X129284428Y-95891314D01*
X129170142Y-95862742D01*
X129113000Y-95805600D01*
X129084428Y-95748457D01*
X129655857Y-95262742D02*
X129684428Y-95177028D01*
X129684428Y-95034171D01*
X129655857Y-94977028D01*
X129627285Y-94948457D01*
X129570142Y-94919885D01*
X129513000Y-94919885D01*
X129455857Y-94948457D01*
X129427285Y-94977028D01*
X129398714Y-95034171D01*
X129370142Y-95148457D01*
X129341571Y-95205600D01*
X129313000Y-95234171D01*
X129255857Y-95262742D01*
X129198714Y-95262742D01*
X129141571Y-95234171D01*
X129113000Y-95205600D01*
X129084428Y-95148457D01*
X129084428Y-95005600D01*
X129113000Y-94919885D01*
X129684428Y-94662742D02*
X129084428Y-94662742D01*
X128363628Y-96548457D02*
X127763628Y-96548457D01*
X128192200Y-96348457D01*
X127763628Y-96148457D01*
X128363628Y-96148457D01*
X128363628Y-95862742D02*
X127763628Y-95862742D01*
X128335057Y-95605600D02*
X128363628Y-95519885D01*
X128363628Y-95377028D01*
X128335057Y-95319885D01*
X128306485Y-95291314D01*
X128249342Y-95262742D01*
X128192200Y-95262742D01*
X128135057Y-95291314D01*
X128106485Y-95319885D01*
X128077914Y-95377028D01*
X128049342Y-95491314D01*
X128020771Y-95548457D01*
X127992200Y-95577028D01*
X127935057Y-95605600D01*
X127877914Y-95605600D01*
X127820771Y-95577028D01*
X127792200Y-95548457D01*
X127763628Y-95491314D01*
X127763628Y-95348457D01*
X127792200Y-95262742D01*
X127763628Y-94891314D02*
X127763628Y-94777028D01*
X127792200Y-94719885D01*
X127849342Y-94662742D01*
X127963628Y-94634171D01*
X128163628Y-94634171D01*
X128277914Y-94662742D01*
X128335057Y-94719885D01*
X128363628Y-94777028D01*
X128363628Y-94891314D01*
X128335057Y-94948457D01*
X128277914Y-95005600D01*
X128163628Y-95034171D01*
X127963628Y-95034171D01*
X127849342Y-95005600D01*
X127792200Y-94948457D01*
X127763628Y-94891314D01*
X127090457Y-96580228D02*
X127119028Y-96494514D01*
X127119028Y-96351657D01*
X127090457Y-96294514D01*
X127061885Y-96265942D01*
X127004742Y-96237371D01*
X126947600Y-96237371D01*
X126890457Y-96265942D01*
X126861885Y-96294514D01*
X126833314Y-96351657D01*
X126804742Y-96465942D01*
X126776171Y-96523085D01*
X126747600Y-96551657D01*
X126690457Y-96580228D01*
X126633314Y-96580228D01*
X126576171Y-96551657D01*
X126547600Y-96523085D01*
X126519028Y-96465942D01*
X126519028Y-96323085D01*
X126547600Y-96237371D01*
X127061885Y-95637371D02*
X127090457Y-95665942D01*
X127119028Y-95751657D01*
X127119028Y-95808800D01*
X127090457Y-95894514D01*
X127033314Y-95951657D01*
X126976171Y-95980228D01*
X126861885Y-96008800D01*
X126776171Y-96008800D01*
X126661885Y-95980228D01*
X126604742Y-95951657D01*
X126547600Y-95894514D01*
X126519028Y-95808800D01*
X126519028Y-95751657D01*
X126547600Y-95665942D01*
X126576171Y-95637371D01*
X127119028Y-95380228D02*
X126519028Y-95380228D01*
X127119028Y-95037371D02*
X126776171Y-95294514D01*
X126519028Y-95037371D02*
X126861885Y-95380228D01*
X125798228Y-96188171D02*
X125512514Y-96388171D01*
X125798228Y-96531028D02*
X125198228Y-96531028D01*
X125198228Y-96302457D01*
X125226800Y-96245314D01*
X125255371Y-96216742D01*
X125312514Y-96188171D01*
X125398228Y-96188171D01*
X125455371Y-96216742D01*
X125483942Y-96245314D01*
X125512514Y-96302457D01*
X125512514Y-96531028D01*
X125769657Y-95959600D02*
X125798228Y-95873885D01*
X125798228Y-95731028D01*
X125769657Y-95673885D01*
X125741085Y-95645314D01*
X125683942Y-95616742D01*
X125626800Y-95616742D01*
X125569657Y-95645314D01*
X125541085Y-95673885D01*
X125512514Y-95731028D01*
X125483942Y-95845314D01*
X125455371Y-95902457D01*
X125426800Y-95931028D01*
X125369657Y-95959600D01*
X125312514Y-95959600D01*
X125255371Y-95931028D01*
X125226800Y-95902457D01*
X125198228Y-95845314D01*
X125198228Y-95702457D01*
X125226800Y-95616742D01*
X125198228Y-95445314D02*
X125198228Y-95102457D01*
X125798228Y-95273885D02*
X125198228Y-95273885D01*
X123953628Y-96583400D02*
X124553628Y-96383400D01*
X123953628Y-96183400D01*
X124496485Y-95640542D02*
X124525057Y-95669114D01*
X124553628Y-95754828D01*
X124553628Y-95811971D01*
X124525057Y-95897685D01*
X124467914Y-95954828D01*
X124410771Y-95983400D01*
X124296485Y-96011971D01*
X124210771Y-96011971D01*
X124096485Y-95983400D01*
X124039342Y-95954828D01*
X123982200Y-95897685D01*
X123953628Y-95811971D01*
X123953628Y-95754828D01*
X123982200Y-95669114D01*
X124010771Y-95640542D01*
X124496485Y-95040542D02*
X124525057Y-95069114D01*
X124553628Y-95154828D01*
X124553628Y-95211971D01*
X124525057Y-95297685D01*
X124467914Y-95354828D01*
X124410771Y-95383400D01*
X124296485Y-95411971D01*
X124210771Y-95411971D01*
X124096485Y-95383400D01*
X124039342Y-95354828D01*
X123982200Y-95297685D01*
X123953628Y-95211971D01*
X123953628Y-95154828D01*
X123982200Y-95069114D01*
X124010771Y-95040542D01*
D11*
%TO.C,J1*%
X131417600Y-97111800D02*
X131417600Y-98221800D01*
X130657600Y-97111800D02*
X131417600Y-97111800D01*
X129897600Y-98785271D02*
X129897600Y-99331800D01*
X129897600Y-97111800D02*
X129897600Y-97658329D01*
X129897600Y-99331800D02*
X123612600Y-99331800D01*
X129897600Y-97111800D02*
X123612600Y-97111800D01*
X123612600Y-98529330D02*
X123612600Y-99331800D01*
X123612600Y-97111800D02*
X123612600Y-97914270D01*
D10*
X131804980Y-98555133D02*
X132519266Y-98555133D01*
X132662123Y-98602752D01*
X132757361Y-98697990D01*
X132804980Y-98840847D01*
X132804980Y-98936085D01*
X132804980Y-97555133D02*
X132804980Y-98126561D01*
X132804980Y-97840847D02*
X131804980Y-97840847D01*
X131947838Y-97936085D01*
X132043076Y-98031323D01*
X132090695Y-98126561D01*
%TD*%
M02*
