%TF.GenerationSoftware,KiCad,Pcbnew,(5.1.9)-1*%
%TF.CreationDate,2021-01-04T22:22:51+01:00*%
%TF.ProjectId,twelvekey,7477656c-7665-46b6-9579-2e6b69636164,rev?*%
%TF.SameCoordinates,Original*%
%TF.FileFunction,Legend,Bot*%
%TF.FilePolarity,Positive*%
%FSLAX46Y46*%
G04 Gerber Fmt 4.6, Leading zero omitted, Abs format (unit mm)*
G04 Created by KiCad (PCBNEW (5.1.9)-1) date 2021-01-04 22:22:51*
%MOMM*%
%LPD*%
G01*
G04 APERTURE LIST*
%ADD10C,0.120000*%
%ADD11C,0.150000*%
G04 APERTURE END LIST*
D10*
%TO.C,D6*%
X146029800Y-95705200D02*
X145099800Y-95705200D01*
X142869800Y-95705200D02*
X143799800Y-95705200D01*
X142869800Y-95705200D02*
X142869800Y-93545200D01*
X146029800Y-95705200D02*
X146029800Y-94245200D01*
%TO.C,D5*%
X107904400Y-95679800D02*
X106974400Y-95679800D01*
X104744400Y-95679800D02*
X105674400Y-95679800D01*
X104744400Y-95679800D02*
X104744400Y-93519800D01*
X107904400Y-95679800D02*
X107904400Y-94219800D01*
%TO.C,D4*%
X146004400Y-76477400D02*
X145074400Y-76477400D01*
X142844400Y-76477400D02*
X143774400Y-76477400D01*
X142844400Y-76477400D02*
X142844400Y-74317400D01*
X146004400Y-76477400D02*
X146004400Y-75017400D01*
%TO.C,D3*%
X107879000Y-76477400D02*
X106949000Y-76477400D01*
X104719000Y-76477400D02*
X105649000Y-76477400D01*
X104719000Y-76477400D02*
X104719000Y-74317400D01*
X107879000Y-76477400D02*
X107879000Y-75017400D01*
%TO.C,D2*%
X146004400Y-57605200D02*
X145074400Y-57605200D01*
X142844400Y-57605200D02*
X143774400Y-57605200D01*
X142844400Y-57605200D02*
X142844400Y-55445200D01*
X146004400Y-57605200D02*
X146004400Y-56145200D01*
%TO.C,D1*%
X107904400Y-57554400D02*
X106974400Y-57554400D01*
X104744400Y-57554400D02*
X105674400Y-57554400D01*
X104744400Y-57554400D02*
X104744400Y-55394400D01*
X107904400Y-57554400D02*
X107904400Y-56094400D01*
%TO.C,X1*%
X138962400Y-83534000D02*
X135662400Y-83534000D01*
X135662400Y-83534000D02*
X135662400Y-79534000D01*
%TO.C,USB1*%
X120674400Y-39122600D02*
X120674400Y-37222600D01*
X120674400Y-43022600D02*
X120674400Y-41022600D01*
X130074400Y-39122600D02*
X130074400Y-37222600D01*
X130074400Y-43022600D02*
X130074400Y-41022600D01*
X120674400Y-37222600D02*
X130074400Y-37222600D01*
%TO.C,U2*%
X126274400Y-58226600D02*
X124474400Y-58226600D01*
X124474400Y-55006600D02*
X126924400Y-55006600D01*
D11*
%TO.C,U1*%
X125577600Y-74959676D02*
X125736699Y-75118775D01*
X120451076Y-80086200D02*
X120680886Y-80316010D01*
X125577600Y-85212724D02*
X125347790Y-84982914D01*
X130704124Y-80086200D02*
X130474314Y-79856390D01*
X125577600Y-74959676D02*
X125347790Y-75189486D01*
X130704124Y-80086200D02*
X130474314Y-80316010D01*
X125577600Y-85212724D02*
X125807410Y-84982914D01*
X120451076Y-80086200D02*
X120680886Y-79856390D01*
X125736699Y-75118775D02*
X126744326Y-74111148D01*
%TO.C,RESET*%
X111693200Y-81991200D02*
G75*
G03*
X111693200Y-81991200I-1000000J0D01*
G01*
X108093200Y-79391200D02*
X108093200Y-84591200D01*
X113293200Y-79391200D02*
X108093200Y-79391200D01*
X113293200Y-84591200D02*
X113293200Y-79391200D01*
X108093200Y-84591200D02*
X113293200Y-84591200D01*
D10*
%TO.C,R9*%
X117502000Y-62409336D02*
X117502000Y-62863464D01*
X118972000Y-62409336D02*
X118972000Y-62863464D01*
%TO.C,R8*%
X127354000Y-62279264D02*
X127354000Y-61825136D01*
X125884000Y-62279264D02*
X125884000Y-61825136D01*
%TO.C,R7*%
X124763200Y-62279264D02*
X124763200Y-61825136D01*
X123293200Y-62279264D02*
X123293200Y-61825136D01*
%TO.C,R6*%
X144651464Y-46966200D02*
X144197336Y-46966200D01*
X144651464Y-48436200D02*
X144197336Y-48436200D01*
%TO.C,R5*%
X106073836Y-48334600D02*
X106527964Y-48334600D01*
X106073836Y-46864600D02*
X106527964Y-46864600D01*
%TO.C,R2*%
X106627664Y-85955200D02*
X106173536Y-85955200D01*
X106627664Y-87425200D02*
X106173536Y-87425200D01*
%TO.C,F1*%
X123922200Y-51630664D02*
X123922200Y-50426536D01*
X122102200Y-51630664D02*
X122102200Y-50426536D01*
%TO.C,D8*%
X128590800Y-60259400D02*
X130590800Y-60259400D01*
X130590800Y-60259400D02*
X130590800Y-64159400D01*
X128590800Y-60259400D02*
X128590800Y-64159400D01*
%TO.C,D7*%
X120005600Y-60259400D02*
X122005600Y-60259400D01*
X122005600Y-60259400D02*
X122005600Y-64159400D01*
X120005600Y-60259400D02*
X120005600Y-64159400D01*
%TO.C,C8*%
X141115148Y-81151400D02*
X141637652Y-81151400D01*
X141115148Y-79681400D02*
X141637652Y-79681400D01*
%TO.C,C7*%
X141115148Y-83462800D02*
X141637652Y-83462800D01*
X141115148Y-81992800D02*
X141637652Y-81992800D01*
%TO.C,C3*%
X123013800Y-89883348D02*
X123013800Y-90405852D01*
X124483800Y-89883348D02*
X124483800Y-90405852D01*
%TO.C,C2*%
X137051148Y-78992400D02*
X137573652Y-78992400D01*
X137051148Y-77522400D02*
X137573652Y-77522400D01*
%TO.C,C1*%
X122526652Y-69902400D02*
X122004148Y-69902400D01*
X122526652Y-71372400D02*
X122004148Y-71372400D01*
D11*
%TO.C,BOOT*%
X101380800Y-81940400D02*
G75*
G03*
X101380800Y-81940400I-1000000J0D01*
G01*
X97780800Y-79340400D02*
X97780800Y-84540400D01*
X102980800Y-79340400D02*
X97780800Y-79340400D01*
X102980800Y-84540400D02*
X102980800Y-79340400D01*
X97780800Y-84540400D02*
X102980800Y-84540400D01*
%TO.C,D6*%
X142402180Y-94207104D02*
X141402180Y-94207104D01*
X141402180Y-94445200D01*
X141449800Y-94588057D01*
X141545038Y-94683295D01*
X141640276Y-94730914D01*
X141830752Y-94778533D01*
X141973609Y-94778533D01*
X142164085Y-94730914D01*
X142259323Y-94683295D01*
X142354561Y-94588057D01*
X142402180Y-94445200D01*
X142402180Y-94207104D01*
X141402180Y-95635676D02*
X141402180Y-95445200D01*
X141449800Y-95349961D01*
X141497419Y-95302342D01*
X141640276Y-95207104D01*
X141830752Y-95159485D01*
X142211704Y-95159485D01*
X142306942Y-95207104D01*
X142354561Y-95254723D01*
X142402180Y-95349961D01*
X142402180Y-95540438D01*
X142354561Y-95635676D01*
X142306942Y-95683295D01*
X142211704Y-95730914D01*
X141973609Y-95730914D01*
X141878371Y-95683295D01*
X141830752Y-95635676D01*
X141783133Y-95540438D01*
X141783133Y-95349961D01*
X141830752Y-95254723D01*
X141878371Y-95207104D01*
X141973609Y-95159485D01*
%TO.C,D5*%
X104276780Y-94181704D02*
X103276780Y-94181704D01*
X103276780Y-94419800D01*
X103324400Y-94562657D01*
X103419638Y-94657895D01*
X103514876Y-94705514D01*
X103705352Y-94753133D01*
X103848209Y-94753133D01*
X104038685Y-94705514D01*
X104133923Y-94657895D01*
X104229161Y-94562657D01*
X104276780Y-94419800D01*
X104276780Y-94181704D01*
X103276780Y-95657895D02*
X103276780Y-95181704D01*
X103752971Y-95134085D01*
X103705352Y-95181704D01*
X103657733Y-95276942D01*
X103657733Y-95515038D01*
X103705352Y-95610276D01*
X103752971Y-95657895D01*
X103848209Y-95705514D01*
X104086304Y-95705514D01*
X104181542Y-95657895D01*
X104229161Y-95610276D01*
X104276780Y-95515038D01*
X104276780Y-95276942D01*
X104229161Y-95181704D01*
X104181542Y-95134085D01*
%TO.C,D4*%
X142376780Y-74979304D02*
X141376780Y-74979304D01*
X141376780Y-75217400D01*
X141424400Y-75360257D01*
X141519638Y-75455495D01*
X141614876Y-75503114D01*
X141805352Y-75550733D01*
X141948209Y-75550733D01*
X142138685Y-75503114D01*
X142233923Y-75455495D01*
X142329161Y-75360257D01*
X142376780Y-75217400D01*
X142376780Y-74979304D01*
X141710114Y-76407876D02*
X142376780Y-76407876D01*
X141329161Y-76169780D02*
X142043447Y-75931685D01*
X142043447Y-76550733D01*
%TO.C,D3*%
X104251380Y-74979304D02*
X103251380Y-74979304D01*
X103251380Y-75217400D01*
X103299000Y-75360257D01*
X103394238Y-75455495D01*
X103489476Y-75503114D01*
X103679952Y-75550733D01*
X103822809Y-75550733D01*
X104013285Y-75503114D01*
X104108523Y-75455495D01*
X104203761Y-75360257D01*
X104251380Y-75217400D01*
X104251380Y-74979304D01*
X103251380Y-75884066D02*
X103251380Y-76503114D01*
X103632333Y-76169780D01*
X103632333Y-76312638D01*
X103679952Y-76407876D01*
X103727571Y-76455495D01*
X103822809Y-76503114D01*
X104060904Y-76503114D01*
X104156142Y-76455495D01*
X104203761Y-76407876D01*
X104251380Y-76312638D01*
X104251380Y-76026923D01*
X104203761Y-75931685D01*
X104156142Y-75884066D01*
%TO.C,D2*%
X142376780Y-56107104D02*
X141376780Y-56107104D01*
X141376780Y-56345200D01*
X141424400Y-56488057D01*
X141519638Y-56583295D01*
X141614876Y-56630914D01*
X141805352Y-56678533D01*
X141948209Y-56678533D01*
X142138685Y-56630914D01*
X142233923Y-56583295D01*
X142329161Y-56488057D01*
X142376780Y-56345200D01*
X142376780Y-56107104D01*
X141472019Y-57059485D02*
X141424400Y-57107104D01*
X141376780Y-57202342D01*
X141376780Y-57440438D01*
X141424400Y-57535676D01*
X141472019Y-57583295D01*
X141567257Y-57630914D01*
X141662495Y-57630914D01*
X141805352Y-57583295D01*
X142376780Y-57011866D01*
X142376780Y-57630914D01*
%TO.C,D1*%
X104276780Y-56056304D02*
X103276780Y-56056304D01*
X103276780Y-56294400D01*
X103324400Y-56437257D01*
X103419638Y-56532495D01*
X103514876Y-56580114D01*
X103705352Y-56627733D01*
X103848209Y-56627733D01*
X104038685Y-56580114D01*
X104133923Y-56532495D01*
X104229161Y-56437257D01*
X104276780Y-56294400D01*
X104276780Y-56056304D01*
X104276780Y-57580114D02*
X104276780Y-57008685D01*
X104276780Y-57294400D02*
X103276780Y-57294400D01*
X103419638Y-57199161D01*
X103514876Y-57103923D01*
X103562495Y-57008685D01*
%TO.C,X1*%
X138096523Y-83983580D02*
X137429857Y-84983580D01*
X137429857Y-83983580D02*
X138096523Y-84983580D01*
X136525095Y-84983580D02*
X137096523Y-84983580D01*
X136810809Y-84983580D02*
X136810809Y-83983580D01*
X136906047Y-84126438D01*
X137001285Y-84221676D01*
X137096523Y-84269295D01*
%TO.C,USB1*%
X127112495Y-46219980D02*
X127112495Y-47029504D01*
X127064876Y-47124742D01*
X127017257Y-47172361D01*
X126922019Y-47219980D01*
X126731542Y-47219980D01*
X126636304Y-47172361D01*
X126588685Y-47124742D01*
X126541066Y-47029504D01*
X126541066Y-46219980D01*
X126112495Y-47172361D02*
X125969638Y-47219980D01*
X125731542Y-47219980D01*
X125636304Y-47172361D01*
X125588685Y-47124742D01*
X125541066Y-47029504D01*
X125541066Y-46934266D01*
X125588685Y-46839028D01*
X125636304Y-46791409D01*
X125731542Y-46743790D01*
X125922019Y-46696171D01*
X126017257Y-46648552D01*
X126064876Y-46600933D01*
X126112495Y-46505695D01*
X126112495Y-46410457D01*
X126064876Y-46315219D01*
X126017257Y-46267600D01*
X125922019Y-46219980D01*
X125683923Y-46219980D01*
X125541066Y-46267600D01*
X124779161Y-46696171D02*
X124636304Y-46743790D01*
X124588685Y-46791409D01*
X124541066Y-46886647D01*
X124541066Y-47029504D01*
X124588685Y-47124742D01*
X124636304Y-47172361D01*
X124731542Y-47219980D01*
X125112495Y-47219980D01*
X125112495Y-46219980D01*
X124779161Y-46219980D01*
X124683923Y-46267600D01*
X124636304Y-46315219D01*
X124588685Y-46410457D01*
X124588685Y-46505695D01*
X124636304Y-46600933D01*
X124683923Y-46648552D01*
X124779161Y-46696171D01*
X125112495Y-46696171D01*
X123588685Y-47219980D02*
X124160114Y-47219980D01*
X123874400Y-47219980D02*
X123874400Y-46219980D01*
X123969638Y-46362838D01*
X124064876Y-46458076D01*
X124160114Y-46505695D01*
%TO.C,U2*%
X126136304Y-53168980D02*
X126136304Y-53978504D01*
X126088685Y-54073742D01*
X126041066Y-54121361D01*
X125945828Y-54168980D01*
X125755352Y-54168980D01*
X125660114Y-54121361D01*
X125612495Y-54073742D01*
X125564876Y-53978504D01*
X125564876Y-53168980D01*
X125136304Y-53264219D02*
X125088685Y-53216600D01*
X124993447Y-53168980D01*
X124755352Y-53168980D01*
X124660114Y-53216600D01*
X124612495Y-53264219D01*
X124564876Y-53359457D01*
X124564876Y-53454695D01*
X124612495Y-53597552D01*
X125183923Y-54168980D01*
X124564876Y-54168980D01*
%TO.C,U1*%
X121451126Y-74882230D02*
X122023546Y-75454650D01*
X122057218Y-75555665D01*
X122057218Y-75623009D01*
X122023546Y-75724024D01*
X121888859Y-75858711D01*
X121787844Y-75892383D01*
X121720500Y-75892383D01*
X121619485Y-75858711D01*
X121047065Y-75286291D01*
X121047065Y-76700505D02*
X121451126Y-76296444D01*
X121249096Y-76498474D02*
X120541989Y-75791368D01*
X120710348Y-75825039D01*
X120845035Y-75825039D01*
X120946050Y-75791368D01*
%TO.C,RESET*%
X112424980Y-78760580D02*
X112758314Y-78284390D01*
X112996409Y-78760580D02*
X112996409Y-77760580D01*
X112615457Y-77760580D01*
X112520219Y-77808200D01*
X112472600Y-77855819D01*
X112424980Y-77951057D01*
X112424980Y-78093914D01*
X112472600Y-78189152D01*
X112520219Y-78236771D01*
X112615457Y-78284390D01*
X112996409Y-78284390D01*
X111996409Y-78236771D02*
X111663076Y-78236771D01*
X111520219Y-78760580D02*
X111996409Y-78760580D01*
X111996409Y-77760580D01*
X111520219Y-77760580D01*
X111139266Y-78712961D02*
X110996409Y-78760580D01*
X110758314Y-78760580D01*
X110663076Y-78712961D01*
X110615457Y-78665342D01*
X110567838Y-78570104D01*
X110567838Y-78474866D01*
X110615457Y-78379628D01*
X110663076Y-78332009D01*
X110758314Y-78284390D01*
X110948790Y-78236771D01*
X111044028Y-78189152D01*
X111091647Y-78141533D01*
X111139266Y-78046295D01*
X111139266Y-77951057D01*
X111091647Y-77855819D01*
X111044028Y-77808200D01*
X110948790Y-77760580D01*
X110710695Y-77760580D01*
X110567838Y-77808200D01*
X110139266Y-78236771D02*
X109805933Y-78236771D01*
X109663076Y-78760580D02*
X110139266Y-78760580D01*
X110139266Y-77760580D01*
X109663076Y-77760580D01*
X109377361Y-77760580D02*
X108805933Y-77760580D01*
X109091647Y-78760580D02*
X109091647Y-77760580D01*
%TO.C,R9*%
X118663980Y-65416133D02*
X118187790Y-65082800D01*
X118663980Y-64844704D02*
X117663980Y-64844704D01*
X117663980Y-65225657D01*
X117711600Y-65320895D01*
X117759219Y-65368514D01*
X117854457Y-65416133D01*
X117997314Y-65416133D01*
X118092552Y-65368514D01*
X118140171Y-65320895D01*
X118187790Y-65225657D01*
X118187790Y-64844704D01*
X118663980Y-65892323D02*
X118663980Y-66082800D01*
X118616361Y-66178038D01*
X118568742Y-66225657D01*
X118425885Y-66320895D01*
X118235409Y-66368514D01*
X117854457Y-66368514D01*
X117759219Y-66320895D01*
X117711600Y-66273276D01*
X117663980Y-66178038D01*
X117663980Y-65987561D01*
X117711600Y-65892323D01*
X117759219Y-65844704D01*
X117854457Y-65797085D01*
X118092552Y-65797085D01*
X118187790Y-65844704D01*
X118235409Y-65892323D01*
X118283028Y-65987561D01*
X118283028Y-66178038D01*
X118235409Y-66273276D01*
X118187790Y-66320895D01*
X118092552Y-66368514D01*
%TO.C,R8*%
X127096780Y-64704933D02*
X126620590Y-64371600D01*
X127096780Y-64133504D02*
X126096780Y-64133504D01*
X126096780Y-64514457D01*
X126144400Y-64609695D01*
X126192019Y-64657314D01*
X126287257Y-64704933D01*
X126430114Y-64704933D01*
X126525352Y-64657314D01*
X126572971Y-64609695D01*
X126620590Y-64514457D01*
X126620590Y-64133504D01*
X126525352Y-65276361D02*
X126477733Y-65181123D01*
X126430114Y-65133504D01*
X126334876Y-65085885D01*
X126287257Y-65085885D01*
X126192019Y-65133504D01*
X126144400Y-65181123D01*
X126096780Y-65276361D01*
X126096780Y-65466838D01*
X126144400Y-65562076D01*
X126192019Y-65609695D01*
X126287257Y-65657314D01*
X126334876Y-65657314D01*
X126430114Y-65609695D01*
X126477733Y-65562076D01*
X126525352Y-65466838D01*
X126525352Y-65276361D01*
X126572971Y-65181123D01*
X126620590Y-65133504D01*
X126715828Y-65085885D01*
X126906304Y-65085885D01*
X127001542Y-65133504D01*
X127049161Y-65181123D01*
X127096780Y-65276361D01*
X127096780Y-65466838D01*
X127049161Y-65562076D01*
X127001542Y-65609695D01*
X126906304Y-65657314D01*
X126715828Y-65657314D01*
X126620590Y-65609695D01*
X126572971Y-65562076D01*
X126525352Y-65466838D01*
%TO.C,R7*%
X124556780Y-64730333D02*
X124080590Y-64397000D01*
X124556780Y-64158904D02*
X123556780Y-64158904D01*
X123556780Y-64539857D01*
X123604400Y-64635095D01*
X123652019Y-64682714D01*
X123747257Y-64730333D01*
X123890114Y-64730333D01*
X123985352Y-64682714D01*
X124032971Y-64635095D01*
X124080590Y-64539857D01*
X124080590Y-64158904D01*
X123556780Y-65063666D02*
X123556780Y-65730333D01*
X124556780Y-65301761D01*
%TO.C,R6*%
X144591066Y-49982380D02*
X144924400Y-49506190D01*
X145162495Y-49982380D02*
X145162495Y-48982380D01*
X144781542Y-48982380D01*
X144686304Y-49030000D01*
X144638685Y-49077619D01*
X144591066Y-49172857D01*
X144591066Y-49315714D01*
X144638685Y-49410952D01*
X144686304Y-49458571D01*
X144781542Y-49506190D01*
X145162495Y-49506190D01*
X143733923Y-48982380D02*
X143924400Y-48982380D01*
X144019638Y-49030000D01*
X144067257Y-49077619D01*
X144162495Y-49220476D01*
X144210114Y-49410952D01*
X144210114Y-49791904D01*
X144162495Y-49887142D01*
X144114876Y-49934761D01*
X144019638Y-49982380D01*
X143829161Y-49982380D01*
X143733923Y-49934761D01*
X143686304Y-49887142D01*
X143638685Y-49791904D01*
X143638685Y-49553809D01*
X143686304Y-49458571D01*
X143733923Y-49410952D01*
X143829161Y-49363333D01*
X144019638Y-49363333D01*
X144114876Y-49410952D01*
X144162495Y-49458571D01*
X144210114Y-49553809D01*
%TO.C,R5*%
X106467566Y-49701980D02*
X106800900Y-49225790D01*
X107038995Y-49701980D02*
X107038995Y-48701980D01*
X106658042Y-48701980D01*
X106562804Y-48749600D01*
X106515185Y-48797219D01*
X106467566Y-48892457D01*
X106467566Y-49035314D01*
X106515185Y-49130552D01*
X106562804Y-49178171D01*
X106658042Y-49225790D01*
X107038995Y-49225790D01*
X105562804Y-48701980D02*
X106038995Y-48701980D01*
X106086614Y-49178171D01*
X106038995Y-49130552D01*
X105943757Y-49082933D01*
X105705661Y-49082933D01*
X105610423Y-49130552D01*
X105562804Y-49178171D01*
X105515185Y-49273409D01*
X105515185Y-49511504D01*
X105562804Y-49606742D01*
X105610423Y-49654361D01*
X105705661Y-49701980D01*
X105943757Y-49701980D01*
X106038995Y-49654361D01*
X106086614Y-49606742D01*
%TO.C,R2*%
X106567266Y-85492580D02*
X106900600Y-85016390D01*
X107138695Y-85492580D02*
X107138695Y-84492580D01*
X106757742Y-84492580D01*
X106662504Y-84540200D01*
X106614885Y-84587819D01*
X106567266Y-84683057D01*
X106567266Y-84825914D01*
X106614885Y-84921152D01*
X106662504Y-84968771D01*
X106757742Y-85016390D01*
X107138695Y-85016390D01*
X106186314Y-84587819D02*
X106138695Y-84540200D01*
X106043457Y-84492580D01*
X105805361Y-84492580D01*
X105710123Y-84540200D01*
X105662504Y-84587819D01*
X105614885Y-84683057D01*
X105614885Y-84778295D01*
X105662504Y-84921152D01*
X106233933Y-85492580D01*
X105614885Y-85492580D01*
%TO.C,F1*%
X124760771Y-50695266D02*
X124760771Y-50361933D01*
X125284580Y-50361933D02*
X124284580Y-50361933D01*
X124284580Y-50838123D01*
X125284580Y-51742885D02*
X125284580Y-51171457D01*
X125284580Y-51457171D02*
X124284580Y-51457171D01*
X124427438Y-51361933D01*
X124522676Y-51266695D01*
X124570295Y-51171457D01*
%TO.C,D8*%
X130119380Y-65301904D02*
X129119380Y-65301904D01*
X129119380Y-65540000D01*
X129167000Y-65682857D01*
X129262238Y-65778095D01*
X129357476Y-65825714D01*
X129547952Y-65873333D01*
X129690809Y-65873333D01*
X129881285Y-65825714D01*
X129976523Y-65778095D01*
X130071761Y-65682857D01*
X130119380Y-65540000D01*
X130119380Y-65301904D01*
X129547952Y-66444761D02*
X129500333Y-66349523D01*
X129452714Y-66301904D01*
X129357476Y-66254285D01*
X129309857Y-66254285D01*
X129214619Y-66301904D01*
X129167000Y-66349523D01*
X129119380Y-66444761D01*
X129119380Y-66635238D01*
X129167000Y-66730476D01*
X129214619Y-66778095D01*
X129309857Y-66825714D01*
X129357476Y-66825714D01*
X129452714Y-66778095D01*
X129500333Y-66730476D01*
X129547952Y-66635238D01*
X129547952Y-66444761D01*
X129595571Y-66349523D01*
X129643190Y-66301904D01*
X129738428Y-66254285D01*
X129928904Y-66254285D01*
X130024142Y-66301904D01*
X130071761Y-66349523D01*
X130119380Y-66444761D01*
X130119380Y-66635238D01*
X130071761Y-66730476D01*
X130024142Y-66778095D01*
X129928904Y-66825714D01*
X129738428Y-66825714D01*
X129643190Y-66778095D01*
X129595571Y-66730476D01*
X129547952Y-66635238D01*
%TO.C,D7*%
X121534180Y-65301904D02*
X120534180Y-65301904D01*
X120534180Y-65540000D01*
X120581800Y-65682857D01*
X120677038Y-65778095D01*
X120772276Y-65825714D01*
X120962752Y-65873333D01*
X121105609Y-65873333D01*
X121296085Y-65825714D01*
X121391323Y-65778095D01*
X121486561Y-65682857D01*
X121534180Y-65540000D01*
X121534180Y-65301904D01*
X120534180Y-66206666D02*
X120534180Y-66873333D01*
X121534180Y-66444761D01*
%TO.C,C8*%
X144464066Y-80824342D02*
X144511685Y-80871961D01*
X144654542Y-80919580D01*
X144749780Y-80919580D01*
X144892638Y-80871961D01*
X144987876Y-80776723D01*
X145035495Y-80681485D01*
X145083114Y-80491009D01*
X145083114Y-80348152D01*
X145035495Y-80157676D01*
X144987876Y-80062438D01*
X144892638Y-79967200D01*
X144749780Y-79919580D01*
X144654542Y-79919580D01*
X144511685Y-79967200D01*
X144464066Y-80014819D01*
X143892638Y-80348152D02*
X143987876Y-80300533D01*
X144035495Y-80252914D01*
X144083114Y-80157676D01*
X144083114Y-80110057D01*
X144035495Y-80014819D01*
X143987876Y-79967200D01*
X143892638Y-79919580D01*
X143702161Y-79919580D01*
X143606923Y-79967200D01*
X143559304Y-80014819D01*
X143511685Y-80110057D01*
X143511685Y-80157676D01*
X143559304Y-80252914D01*
X143606923Y-80300533D01*
X143702161Y-80348152D01*
X143892638Y-80348152D01*
X143987876Y-80395771D01*
X144035495Y-80443390D01*
X144083114Y-80538628D01*
X144083114Y-80729104D01*
X144035495Y-80824342D01*
X143987876Y-80871961D01*
X143892638Y-80919580D01*
X143702161Y-80919580D01*
X143606923Y-80871961D01*
X143559304Y-80824342D01*
X143511685Y-80729104D01*
X143511685Y-80538628D01*
X143559304Y-80443390D01*
X143606923Y-80395771D01*
X143702161Y-80348152D01*
%TO.C,C7*%
X144540266Y-83059542D02*
X144587885Y-83107161D01*
X144730742Y-83154780D01*
X144825980Y-83154780D01*
X144968838Y-83107161D01*
X145064076Y-83011923D01*
X145111695Y-82916685D01*
X145159314Y-82726209D01*
X145159314Y-82583352D01*
X145111695Y-82392876D01*
X145064076Y-82297638D01*
X144968838Y-82202400D01*
X144825980Y-82154780D01*
X144730742Y-82154780D01*
X144587885Y-82202400D01*
X144540266Y-82250019D01*
X144206933Y-82154780D02*
X143540266Y-82154780D01*
X143968838Y-83154780D01*
%TO.C,C3*%
X122425942Y-89977933D02*
X122473561Y-89930314D01*
X122521180Y-89787457D01*
X122521180Y-89692219D01*
X122473561Y-89549361D01*
X122378323Y-89454123D01*
X122283085Y-89406504D01*
X122092609Y-89358885D01*
X121949752Y-89358885D01*
X121759276Y-89406504D01*
X121664038Y-89454123D01*
X121568800Y-89549361D01*
X121521180Y-89692219D01*
X121521180Y-89787457D01*
X121568800Y-89930314D01*
X121616419Y-89977933D01*
X121521180Y-90311266D02*
X121521180Y-90930314D01*
X121902133Y-90596980D01*
X121902133Y-90739838D01*
X121949752Y-90835076D01*
X121997371Y-90882695D01*
X122092609Y-90930314D01*
X122330704Y-90930314D01*
X122425942Y-90882695D01*
X122473561Y-90835076D01*
X122521180Y-90739838D01*
X122521180Y-90454123D01*
X122473561Y-90358885D01*
X122425942Y-90311266D01*
%TO.C,C2*%
X137479066Y-80294542D02*
X137526685Y-80342161D01*
X137669542Y-80389780D01*
X137764780Y-80389780D01*
X137907638Y-80342161D01*
X138002876Y-80246923D01*
X138050495Y-80151685D01*
X138098114Y-79961209D01*
X138098114Y-79818352D01*
X138050495Y-79627876D01*
X138002876Y-79532638D01*
X137907638Y-79437400D01*
X137764780Y-79389780D01*
X137669542Y-79389780D01*
X137526685Y-79437400D01*
X137479066Y-79485019D01*
X137098114Y-79485019D02*
X137050495Y-79437400D01*
X136955257Y-79389780D01*
X136717161Y-79389780D01*
X136621923Y-79437400D01*
X136574304Y-79485019D01*
X136526685Y-79580257D01*
X136526685Y-79675495D01*
X136574304Y-79818352D01*
X137145733Y-80389780D01*
X136526685Y-80389780D01*
%TO.C,C1*%
X122432066Y-69314542D02*
X122479685Y-69362161D01*
X122622542Y-69409780D01*
X122717780Y-69409780D01*
X122860638Y-69362161D01*
X122955876Y-69266923D01*
X123003495Y-69171685D01*
X123051114Y-68981209D01*
X123051114Y-68838352D01*
X123003495Y-68647876D01*
X122955876Y-68552638D01*
X122860638Y-68457400D01*
X122717780Y-68409780D01*
X122622542Y-68409780D01*
X122479685Y-68457400D01*
X122432066Y-68505019D01*
X121479685Y-69409780D02*
X122051114Y-69409780D01*
X121765400Y-69409780D02*
X121765400Y-68409780D01*
X121860638Y-68552638D01*
X121955876Y-68647876D01*
X122051114Y-68695495D01*
%TO.C,BOOT*%
X101788742Y-78262171D02*
X101645885Y-78309790D01*
X101598266Y-78357409D01*
X101550647Y-78452647D01*
X101550647Y-78595504D01*
X101598266Y-78690742D01*
X101645885Y-78738361D01*
X101741123Y-78785980D01*
X102122076Y-78785980D01*
X102122076Y-77785980D01*
X101788742Y-77785980D01*
X101693504Y-77833600D01*
X101645885Y-77881219D01*
X101598266Y-77976457D01*
X101598266Y-78071695D01*
X101645885Y-78166933D01*
X101693504Y-78214552D01*
X101788742Y-78262171D01*
X102122076Y-78262171D01*
X100931600Y-77785980D02*
X100741123Y-77785980D01*
X100645885Y-77833600D01*
X100550647Y-77928838D01*
X100503028Y-78119314D01*
X100503028Y-78452647D01*
X100550647Y-78643123D01*
X100645885Y-78738361D01*
X100741123Y-78785980D01*
X100931600Y-78785980D01*
X101026838Y-78738361D01*
X101122076Y-78643123D01*
X101169695Y-78452647D01*
X101169695Y-78119314D01*
X101122076Y-77928838D01*
X101026838Y-77833600D01*
X100931600Y-77785980D01*
X99883980Y-77785980D02*
X99693504Y-77785980D01*
X99598266Y-77833600D01*
X99503028Y-77928838D01*
X99455409Y-78119314D01*
X99455409Y-78452647D01*
X99503028Y-78643123D01*
X99598266Y-78738361D01*
X99693504Y-78785980D01*
X99883980Y-78785980D01*
X99979219Y-78738361D01*
X100074457Y-78643123D01*
X100122076Y-78452647D01*
X100122076Y-78119314D01*
X100074457Y-77928838D01*
X99979219Y-77833600D01*
X99883980Y-77785980D01*
X99169695Y-77785980D02*
X98598266Y-77785980D01*
X98883980Y-78785980D02*
X98883980Y-77785980D01*
%TD*%
M02*
