M48
; DRILL file {KiCad (5.1.10)-1} date 09/30/21 18:26:25
; FORMAT={-:-/ absolute / metric / decimal}
; #@! TF.CreationDate,2021-09-30T18:26:25+02:00
; #@! TF.GenerationSoftware,Kicad,Pcbnew,(5.1.10)-1
; #@! TF.FileFunction,NonPlated,1,2,NPTH
FMAT,2
METRIC
T1C0.650
T2C1.750
T3C3.988
%
G90
G05
T1
X122.484Y-43.723
X128.264Y-43.723
T2
X91.719Y-54.559
X91.719Y-73.609
X91.719Y-92.659
X101.879Y-54.559
X101.879Y-73.609
X101.879Y-92.659
X110.769Y-54.559
X110.769Y-73.609
X110.769Y-92.659
X120.929Y-54.559
X120.929Y-73.609
X120.929Y-92.659
X129.819Y-54.559
X129.819Y-73.609
X129.819Y-92.659
X139.979Y-54.559
X139.979Y-73.609
X139.979Y-92.659
X148.869Y-54.559
X148.869Y-73.609
X148.869Y-92.659
X159.029Y-54.559
X159.029Y-73.609
X159.029Y-92.659
T3
X96.799Y-54.559
X96.799Y-73.609
X96.799Y-92.659
X115.849Y-54.559
X115.849Y-73.609
X115.849Y-92.659
X134.899Y-54.559
X134.899Y-73.609
X134.899Y-92.659
X153.949Y-54.559
X153.949Y-73.609
X153.949Y-92.659
T0
M30
