M48
; DRILL file {KiCad (5.1.9)-1} date 01/11/21 10:55:46
; FORMAT={-:-/ absolute / inch / decimal}
; #@! TF.CreationDate,2021-01-11T10:55:46+01:00
; #@! TF.GenerationSoftware,Kicad,Pcbnew,(5.1.9)-1
; #@! TF.FileFunction,Plated,1,2,PTH
FMAT,2
INCH
T1C0.0157
T2C0.0236
T3C0.0256
T4C0.0409
T5C0.0579
%
G90
G05
T1
X4.291Y-2.797
X4.299Y-2.223
X4.336Y-2.708
X4.43Y-3.273
X4.678Y-2.289
X4.685Y-2.215
X4.818Y-3.573
X4.843Y-1.883
X4.851Y-2.876
X4.915Y-2.821
X4.939Y-3.121
X4.974Y-3.53
X4.979Y-2.756
X4.989Y-3.257
X5.021Y-2.956
X5.033Y-1.882
X5.046Y-3.491
X5.077Y-3.465
X5.078Y-2.287
X5.079Y-2.215
X5.122Y-2.674
X5.242Y-3.337
X5.242Y-3.402
X5.609Y-2.515
X5.713Y-3.45
X5.759Y-2.667
X5.826Y-3.172
T3
X4.894Y-3.867
X4.944Y-3.867
X4.994Y-3.867
X5.044Y-3.867
X5.094Y-3.867
X5.144Y-3.867
T4
X3.761Y-2.348
X3.761Y-3.098
X3.761Y-3.848
X3.861Y-2.348
X3.861Y-3.098
X3.861Y-3.848
X4.511Y-2.348
X4.511Y-3.098
X4.511Y-3.848
X4.611Y-2.348
X4.611Y-3.098
X4.611Y-3.848
X5.261Y-2.348
X5.261Y-3.098
X5.261Y-3.848
X5.361Y-2.348
X5.361Y-3.098
X5.361Y-3.848
X6.011Y-2.348
X6.011Y-3.098
X6.011Y-3.848
X6.111Y-2.348
X6.111Y-3.098
X6.111Y-3.848
T5
X3.661Y-2.048
X3.661Y-2.798
X3.661Y-3.548
X3.911Y-1.948
X3.911Y-2.698
X3.911Y-3.448
X4.411Y-2.048
X4.411Y-2.798
X4.411Y-3.548
X4.661Y-1.948
X4.661Y-2.698
X4.661Y-3.448
X5.161Y-2.048
X5.161Y-2.798
X5.161Y-3.548
X5.411Y-1.948
X5.411Y-2.698
X5.411Y-3.448
X5.911Y-2.048
X5.911Y-2.798
X5.911Y-3.548
X6.161Y-1.948
X6.161Y-2.698
X6.161Y-3.448
T2
G00X4.7659Y-1.5659
M15
G01X4.7659Y-1.5895
M16
G05
G00X4.7659Y-1.7206
M15
G01X4.7659Y-1.7639
M16
G05
G00X5.1061Y-1.5659
M15
G01X5.1061Y-1.5895
M16
G05
G00X5.1061Y-1.7206
M15
G01X5.1061Y-1.7639
M16
G05
T0
M30
